<svg width="1080" height="559" viewBox="0 0 1080 559" fill="none" xmlns="http://www.w3.org/2000/svg">
<g opacity="0.5">
<path d="M5.4 41H2.448V15.26H5.4V41ZM34.4243 37.58L38.1323 23.36H40.9763L36.1163 41H33.1283L28.5923 26.78L24.0203 41H21.0323L16.2083 23.36H19.0163L22.7243 37.58L27.2603 23.36H29.8883L34.4243 37.58ZM50.8403 41.36C45.9083 41.36 42.3803 37.544 42.3803 32.18C42.3803 26.816 45.9083 23 50.8403 23C55.7723 23 59.3003 26.816 59.3003 32.18C59.3003 37.544 55.7723 41.36 50.8403 41.36ZM50.8403 38.804C54.1883 38.804 56.5643 36.068 56.5643 32.18C56.5643 28.292 54.1883 25.556 50.8403 25.556C47.4923 25.556 45.1163 28.292 45.1163 32.18C45.1163 36.068 47.4923 38.804 50.8403 38.804ZM65.3712 41H62.6352V23.36H65.1192L65.1912 26.924H65.2272C66.3072 24.368 68.3232 22.928 70.9512 22.928C71.2752 22.928 71.5632 22.964 71.8872 23.036L71.7072 25.592C71.3112 25.52 70.9872 25.484 70.5552 25.484C68.0352 25.484 66.1992 27.464 65.5512 30.956C65.4072 31.64 65.3712 32.612 65.3712 34.34V41ZM90.454 41H87.178L80.842 32.216L77.422 35.744V41H74.686V14.54H77.422V32.216L85.774 23.36H89.374L82.678 30.308L90.454 41ZM102.968 19.328H99.9443V15.764H102.968V19.328ZM102.824 41H100.088V23.36H102.824V41ZM109.777 41H107.041V23.36H109.525L109.597 26.816H109.633C110.821 24.368 113.089 23 115.825 23C119.641 23 122.053 25.664 122.053 29.876V41H119.317V30.02C119.317 27.104 117.913 25.556 115.321 25.556C112.513 25.556 110.569 27.356 109.957 30.452C109.813 31.172 109.777 31.892 109.777 33.908V41Z" fill="white"/>
<mask id="path-2-outside-1_5508_11751" maskUnits="userSpaceOnUse" x="141" y="0" width="157" height="61" fill="black">
<rect fill="white" x="141" width="157" height="61"/>
<path d="M141 0H298V59H141V0Z"/>
</mask>
<path d="M298 57H141V61H298V57Z" fill="white" fill-opacity="0.25" mask="url(#path-2-outside-1_5508_11751)"/>
<path d="M156.624 27.464C159.72 28.472 161.448 30.704 161.448 33.872C161.448 38.264 157.956 41 152.304 41H143.448V15.26H151.476C156.876 15.26 160.044 17.744 160.044 21.992C160.044 24.44 158.784 26.348 156.624 27.464ZM151.404 18.068H146.4V26.276H151.404C155.112 26.276 157.164 24.764 157.164 22.064C157.164 19.436 155.22 18.068 151.404 18.068ZM146.4 38.192H152.232C156.372 38.192 158.604 36.644 158.604 33.8C158.604 30.668 156.408 29.012 152.232 29.012H146.4V38.192ZM168.162 38.12L181.266 38.192V41H164.166V38.48C168.126 35.204 170.61 33.152 173.31 30.416C176.91 26.744 177.774 25.232 177.774 22.712C177.774 19.688 175.542 17.636 172.302 17.636C169.026 17.636 166.794 19.94 166.65 23.54L163.914 23.252C163.986 18.356 167.514 14.9 172.374 14.9C177.27 14.9 180.69 18.14 180.69 22.748C180.69 25.88 179.178 28.58 175.614 31.856C173.022 34.196 170.898 35.996 168.162 38.12ZM197.741 27.464C200.837 28.472 202.565 30.704 202.565 33.872C202.565 38.264 199.073 41 193.421 41H184.565V15.26H192.593C197.993 15.26 201.161 17.744 201.161 21.992C201.161 24.44 199.901 26.348 197.741 27.464ZM192.521 18.068H187.517V26.276H192.521C196.229 26.276 198.281 24.764 198.281 22.064C198.281 19.436 196.337 18.068 192.521 18.068ZM187.517 38.192H193.349C197.489 38.192 199.721 36.644 199.721 33.8C199.721 30.668 197.525 29.012 193.349 29.012H187.517V38.192ZM223.396 41.36C219.58 41.36 215.872 39.92 213.172 37.148L215.008 35.06C217.456 37.508 220.48 38.588 223.396 38.588C227.212 38.588 229.66 36.716 229.66 34.016C229.66 30.776 226.06 29.948 223.036 29.3C220.192 28.688 214.324 27.428 214.324 21.848C214.324 17.384 218.104 14.9 222.82 14.9C226.636 14.9 229.696 16.448 232.324 18.752L230.488 20.84C228.004 18.788 225.484 17.708 222.748 17.708C219.724 17.708 217.276 19.148 217.276 21.92C217.276 24.908 220.12 25.736 223.324 26.384C226.348 26.996 232.648 28.256 232.648 33.98C232.648 38.408 228.832 41.36 223.396 41.36ZM249.791 26.384V23.36H252.527V41H250.007L249.863 37.832C248.459 40.028 246.227 41.36 243.527 41.36C238.955 41.36 235.607 37.508 235.607 32.18C235.607 26.852 238.955 22.964 243.527 22.964C246.155 22.964 248.387 24.26 249.791 26.384ZM244.067 38.804C247.379 38.804 249.791 36.032 249.791 32.18C249.791 28.328 247.379 25.556 244.067 25.556C240.755 25.556 238.343 28.328 238.343 32.18C238.343 36.032 240.755 38.804 244.067 38.804ZM259.477 41H256.741V14.54H259.477V41ZM271.262 41.36C266.366 41.36 262.802 37.508 262.802 32.18C262.802 26.816 266.222 23 271.082 23C275.906 23 279.362 26.78 279.362 32.072C279.362 32.54 279.326 32.936 279.29 33.296H265.574C266.042 36.608 268.31 38.804 271.262 38.804C273.53 38.804 275.186 37.868 276.698 35.672L278.858 37.076C277.238 39.884 274.61 41.36 271.262 41.36ZM265.61 30.848H276.554C276.266 27.68 274.07 25.556 271.082 25.556C268.202 25.556 266.042 27.68 265.61 30.848ZM289.146 41.36C286.086 41.36 283.242 40.316 281.478 38.444L282.918 36.464C284.466 38.048 286.842 38.912 289.074 38.912C291.414 38.912 293.106 37.796 293.106 36.14C293.106 34.088 290.442 33.584 288.642 33.26C285.834 32.756 282.27 31.748 282.27 28.076C282.27 25.016 284.79 23 288.282 23C290.982 23 293.106 23.72 295.302 25.376L293.862 27.392C292.098 26.132 290.19 25.448 288.282 25.448C286.266 25.448 284.898 26.42 284.898 27.896C284.898 29.984 287.67 30.488 289.002 30.704C292.134 31.244 295.734 32.324 295.734 36.032C295.734 39.272 292.998 41.36 289.146 41.36Z" fill="white"/>
<path d="M320.84 41H318.104V25.916H315.044V23.36H318.104V20.804C318.104 16.196 319.94 14.108 324.008 14.108C324.872 14.108 325.916 14.252 326.852 14.54L326.492 17.06C325.664 16.808 324.908 16.664 324.224 16.664C321.92 16.664 320.84 17.996 320.84 20.804V23.36H325.916V25.916H320.84V41ZM335.36 41.36C330.428 41.36 326.9 37.544 326.9 32.18C326.9 26.816 330.428 23 335.36 23C340.292 23 343.82 26.816 343.82 32.18C343.82 37.544 340.292 41.36 335.36 41.36ZM335.36 38.804C338.708 38.804 341.084 36.068 341.084 32.18C341.084 28.292 338.708 25.556 335.36 25.556C332.012 25.556 329.636 28.292 329.636 32.18C329.636 36.068 332.012 38.804 335.36 38.804ZM349.891 41H347.155V23.36H349.639L349.711 26.924H349.747C350.827 24.368 352.843 22.928 355.471 22.928C355.795 22.928 356.083 22.964 356.407 23.036L356.227 25.592C355.831 25.52 355.507 25.484 355.075 25.484C352.555 25.484 350.719 27.464 350.071 30.956C349.927 31.64 349.891 32.612 349.891 34.34V41Z" fill="white"/>
<mask id="path-6-outside-2_5508_11751" maskUnits="userSpaceOnUse" x="374" y="0" width="179" height="61" fill="black">
<rect fill="white" x="374" width="179" height="61"/>
<path d="M374 0H553V59H374V0Z"/>
</mask>
<path d="M553 57H374V61H553V57Z" fill="white" fill-opacity="0.25" mask="url(#path-6-outside-2_5508_11751)"/>
<path d="M398.228 41H395.132L392.576 34.196H380.444L377.852 41H374.792L384.62 15.26H388.364L398.228 41ZM386.528 18.104L381.488 31.424H391.532L386.528 18.104ZM412.192 23.36H414.928V41H412.444L412.372 37.544H412.336C411.148 39.992 408.88 41.36 406.144 41.36C402.328 41.36 399.916 38.696 399.916 34.484V23.36H402.652V34.34C402.652 37.256 404.056 38.804 406.648 38.804C409.456 38.804 411.4 37.004 412.012 33.908C412.156 33.188 412.192 32.468 412.192 30.452V23.36ZM426.567 41.36C422.499 41.36 420.663 39.272 420.663 34.628V25.916H417.603V23.36H420.663V17.672H423.399V23.36H428.943V25.916H423.399V34.628C423.399 37.472 424.479 38.804 426.783 38.804C427.503 38.804 428.295 38.66 429.051 38.408L429.411 40.928C428.511 41.216 427.467 41.36 426.567 41.36ZM439.184 41.36C434.252 41.36 430.724 37.544 430.724 32.18C430.724 26.816 434.252 23 439.184 23C444.116 23 447.644 26.816 447.644 32.18C447.644 37.544 444.116 41.36 439.184 41.36ZM439.184 38.804C442.532 38.804 444.908 36.068 444.908 32.18C444.908 28.292 442.532 25.556 439.184 25.556C435.836 25.556 433.46 28.292 433.46 32.18C433.46 36.068 435.836 38.804 439.184 38.804ZM470.167 23C473.731 23 475.855 25.628 475.855 30.056V41H473.119V30.02C473.119 27.14 471.823 25.556 469.519 25.556C467.071 25.556 465.379 27.392 464.911 30.488C464.803 31.244 464.767 32.144 464.767 33.944V41H462.067V30.02C462.067 27.176 460.771 25.556 458.503 25.556C455.947 25.556 454.327 27.356 453.859 30.488C453.751 31.244 453.715 32.144 453.715 33.944V41H450.979V23.36H453.463L453.535 26.24H453.607C454.615 24.224 456.667 23 459.115 23C461.671 23 463.471 24.368 464.299 26.78C465.343 24.404 467.539 23 470.167 23ZM487.614 41.36C482.682 41.36 479.154 37.544 479.154 32.18C479.154 26.816 482.682 23 487.614 23C492.546 23 496.074 26.816 496.074 32.18C496.074 37.544 492.546 41.36 487.614 41.36ZM487.614 38.804C490.962 38.804 493.338 36.068 493.338 32.18C493.338 28.292 490.962 25.556 487.614 25.556C484.266 25.556 481.89 28.292 481.89 32.18C481.89 36.068 484.266 38.804 487.614 38.804ZM505.988 41.36C501.92 41.36 500.084 39.272 500.084 34.628V25.916H497.024V23.36H500.084V17.672H502.82V23.36H508.364V25.916H502.82V34.628C502.82 37.472 503.9 38.804 506.204 38.804C506.924 38.804 507.716 38.66 508.472 38.408L508.832 40.928C507.932 41.216 506.888 41.36 505.988 41.36ZM514.515 19.328H511.491V15.764H514.515V19.328ZM514.371 41H511.635V23.36H514.371V41ZM524.86 38.12L530.224 23.36H533.068L526.444 41H523.276L516.652 23.36H519.496L524.86 38.12ZM542.461 41.36C537.565 41.36 534.001 37.508 534.001 32.18C534.001 26.816 537.421 23 542.281 23C547.105 23 550.561 26.78 550.561 32.072C550.561 32.54 550.525 32.936 550.489 33.296H536.773C537.241 36.608 539.509 38.804 542.461 38.804C544.729 38.804 546.385 37.868 547.897 35.672L550.057 37.076C548.437 39.884 545.809 41.36 542.461 41.36ZM536.809 30.848H547.753C547.465 27.68 545.269 25.556 542.281 25.556C539.401 25.556 537.241 27.68 536.809 30.848Z" fill="white"/>
</g>
<path d="M5.4 371.26V394.192H18.9V397H2.448V371.26H5.4ZM34.537 382.384V379.36H37.273V397H34.753L34.609 393.832C33.205 396.028 30.973 397.36 28.273 397.36C23.701 397.36 20.353 393.508 20.353 388.18C20.353 382.852 23.701 378.964 28.273 378.964C30.901 378.964 33.133 380.26 34.537 382.384ZM28.813 394.804C32.125 394.804 34.537 392.032 34.537 388.18C34.537 384.328 32.125 381.556 28.813 381.556C25.501 381.556 23.089 384.328 23.089 388.18C23.089 392.032 25.501 394.804 28.813 394.804ZM47.611 397.36C44.551 397.36 41.707 396.316 39.943 394.444L41.383 392.464C42.931 394.048 45.307 394.912 47.539 394.912C49.879 394.912 51.571 393.796 51.571 392.14C51.571 390.088 48.907 389.584 47.107 389.26C44.299 388.756 40.735 387.748 40.735 384.076C40.735 381.016 43.255 379 46.747 379C49.447 379 51.571 379.72 53.767 381.376L52.327 383.392C50.563 382.132 48.655 381.448 46.747 381.448C44.731 381.448 43.363 382.42 43.363 383.896C43.363 385.984 46.135 386.488 47.467 386.704C50.599 387.244 54.199 388.324 54.199 392.032C54.199 395.272 51.463 397.36 47.611 397.36ZM64.2307 397.36C60.1627 397.36 58.3267 395.272 58.3267 390.628V381.916H55.2667V379.36H58.3267V373.672H61.0627V379.36H66.6067V381.916H61.0627V390.628C61.0627 393.472 62.1427 394.804 64.4467 394.804C65.1667 394.804 65.9587 394.66 66.7147 394.408L67.0747 396.928C66.1747 397.216 65.1307 397.36 64.2307 397.36ZM72.5782 397H69.8422V370.54H72.5782V397ZM78.0278 404.344C76.7678 404.344 75.9398 404.128 75.1478 403.804L75.7598 401.536C76.2638 401.716 76.8758 401.86 77.7038 401.86C79.2518 401.86 80.4398 400.924 81.3398 398.692L82.1678 396.64L74.8238 379.36H77.6678L83.3918 393.328L88.4678 379.36H91.3118L83.7158 399.448C82.2758 403.264 80.0078 404.344 78.0278 404.344ZM91.6074 397V393.364H94.8834V398.224C94.8834 400.42 94.0194 401.644 91.6074 402.076V400.528C92.9394 400.168 93.0834 399.268 93.0834 398.188V397H91.6074ZM108.064 397H105.112V371.26H108.064V397ZM137.088 393.58L140.796 379.36H143.64L138.78 397H135.792L131.256 382.78L126.684 397H123.696L118.872 379.36H121.68L125.388 393.58L129.924 379.36H132.552L137.088 393.58ZM159.228 382.384V379.36H161.964V397H159.444L159.3 393.832C157.896 396.028 155.664 397.36 152.964 397.36C148.392 397.36 145.044 393.508 145.044 388.18C145.044 382.852 148.392 378.964 152.964 378.964C155.592 378.964 157.824 380.26 159.228 382.384ZM153.504 394.804C156.816 394.804 159.228 392.032 159.228 388.18C159.228 384.328 156.816 381.556 153.504 381.556C150.192 381.556 147.78 384.328 147.78 388.18C147.78 392.032 150.192 394.804 153.504 394.804ZM168.914 397H166.178V379.36H168.662L168.734 382.816H168.77C169.958 380.368 172.226 379 174.962 379C178.778 379 181.19 381.664 181.19 385.876V397H178.454V386.02C178.454 383.104 177.05 381.556 174.458 381.556C171.65 381.556 169.706 383.356 169.094 386.452C168.95 387.172 168.914 387.892 168.914 389.908V397ZM192.086 397.36C188.018 397.36 186.182 395.272 186.182 390.628V381.916H183.122V379.36H186.182V373.672H188.918V379.36H194.462V381.916H188.918V390.628C188.918 393.472 189.998 394.804 192.302 394.804C193.022 394.804 193.814 394.66 194.57 394.408L194.93 396.928C194.03 397.216 192.986 397.36 192.086 397.36ZM213.797 397.36C209.729 397.36 207.893 395.272 207.893 390.628V381.916H204.833V379.36H207.893V373.672H210.629V379.36H216.173V381.916H210.629V390.628C210.629 393.472 211.709 394.804 214.013 394.804C214.733 394.804 215.525 394.66 216.281 394.408L216.641 396.928C215.741 397.216 214.697 397.36 213.797 397.36ZM226.415 397.36C221.483 397.36 217.955 393.544 217.955 388.18C217.955 382.816 221.483 379 226.415 379C231.347 379 234.875 382.816 234.875 388.18C234.875 393.544 231.347 397.36 226.415 397.36ZM226.415 394.804C229.763 394.804 232.139 392.068 232.139 388.18C232.139 384.292 229.763 381.556 226.415 381.556C223.067 381.556 220.691 384.292 220.691 388.18C220.691 392.068 223.067 394.804 226.415 394.804Z" fill="white"/>
<mask id="path-10-outside-3_5508_11751" maskUnits="userSpaceOnUse" x="0" y="423" width="906" height="61" fill="black">
<rect fill="white" y="423" width="906" height="61"/>
<path d="M0 423H906V482H0V423Z"/>
</mask>
<path d="M906 480H0V484H906V480Z" fill="white" fill-opacity="0.6" mask="url(#path-10-outside-3_5508_11751)"/>
<path d="M11.52 438.26C18.684 438.26 23.724 443.588 23.724 451.148C23.724 458.672 18.684 464 11.52 464H2.448V438.26H11.52ZM5.4 461.192H11.52C16.992 461.192 20.772 457.088 20.772 451.148C20.772 445.172 17.028 441.068 11.52 441.068H5.4V461.192ZM30.1329 464H27.3969V446.36H29.8809L29.9529 449.924H29.9889C31.0689 447.368 33.0849 445.928 35.7129 445.928C36.0369 445.928 36.3249 445.964 36.6489 446.036L36.4689 448.592C36.0729 448.52 35.7489 448.484 35.3169 448.484C32.7969 448.484 30.9609 450.464 30.3129 453.956C30.1689 454.64 30.1329 455.612 30.1329 457.34V464ZM42.6089 442.328H39.5849V438.764H42.6089V442.328ZM42.4649 464H39.7289V446.36H42.4649V464ZM52.9537 461.12L58.3177 446.36H61.1617L54.5377 464H51.3697L44.7457 446.36H47.5897L52.9537 461.12ZM70.5552 464.36C65.6592 464.36 62.0952 460.508 62.0952 455.18C62.0952 449.816 65.5152 446 70.3752 446C75.1992 446 78.6552 449.78 78.6552 455.072C78.6552 455.54 78.6192 455.936 78.5832 456.296H64.8672C65.3352 459.608 67.6032 461.804 70.5552 461.804C72.8232 461.804 74.4792 460.868 75.9912 458.672L78.1512 460.076C76.5312 462.884 73.9032 464.36 70.5552 464.36ZM64.9032 453.848H75.8472C75.5592 450.68 73.3632 448.556 70.3752 448.556C67.4952 448.556 65.3352 450.68 64.9032 453.848ZM99.6391 446C104.247 446 107.559 449.816 107.559 455.18C107.559 460.544 104.247 464.36 99.6391 464.36C96.9391 464.36 94.7071 463.028 93.3031 460.868L93.1591 464H90.6391V437.54H93.3751V449.384C94.7791 447.296 97.0111 446 99.6391 446ZM99.0991 461.804C102.447 461.804 104.823 459.068 104.823 455.18C104.823 451.292 102.447 448.556 99.0991 448.556C95.7511 448.556 93.3751 451.292 93.3751 455.18C93.3751 459.068 95.7511 461.804 99.0991 461.804ZM123.153 446.36H125.889V464H123.405L123.333 460.544H123.297C122.109 462.992 119.841 464.36 117.105 464.36C113.289 464.36 110.877 461.696 110.877 457.484V446.36H113.613V457.34C113.613 460.256 115.017 461.804 117.609 461.804C120.417 461.804 122.361 460.004 122.973 456.908C123.117 456.188 123.153 455.468 123.153 453.452V446.36ZM136.228 464.36C133.168 464.36 130.324 463.316 128.56 461.444L130 459.464C131.548 461.048 133.924 461.912 136.156 461.912C138.496 461.912 140.188 460.796 140.188 459.14C140.188 457.088 137.524 456.584 135.724 456.26C132.916 455.756 129.352 454.748 129.352 451.076C129.352 448.016 131.872 446 135.364 446C138.064 446 140.188 446.72 142.384 448.376L140.944 450.392C139.18 449.132 137.272 448.448 135.364 448.448C133.348 448.448 131.98 449.42 131.98 450.896C131.98 452.984 134.752 453.488 136.084 453.704C139.216 454.244 142.816 455.324 142.816 459.032C142.816 462.272 140.08 464.36 136.228 464.36ZM148.726 442.328H145.702V438.764H148.726V442.328ZM148.582 464H145.846V446.36H148.582V464ZM155.535 464H152.799V446.36H155.283L155.355 449.816H155.391C156.579 447.368 158.847 446 161.583 446C165.399 446 167.811 448.664 167.811 452.876V464H165.075V453.02C165.075 450.104 163.671 448.556 161.079 448.556C158.271 448.556 156.327 450.356 155.715 453.452C155.571 454.172 155.535 454.892 155.535 456.908V464ZM179.59 464.36C174.694 464.36 171.13 460.508 171.13 455.18C171.13 449.816 174.55 446 179.41 446C184.234 446 187.69 449.78 187.69 455.072C187.69 455.54 187.654 455.936 187.618 456.296H173.902C174.37 459.608 176.638 461.804 179.59 461.804C181.858 461.804 183.514 460.868 185.026 458.672L187.186 460.076C185.566 462.884 182.938 464.36 179.59 464.36ZM173.938 453.848H184.882C184.594 450.68 182.398 448.556 179.41 448.556C176.53 448.556 174.37 450.68 173.938 453.848ZM197.474 464.36C194.414 464.36 191.57 463.316 189.806 461.444L191.246 459.464C192.794 461.048 195.17 461.912 197.402 461.912C199.742 461.912 201.434 460.796 201.434 459.14C201.434 457.088 198.77 456.584 196.97 456.26C194.162 455.756 190.598 454.748 190.598 451.076C190.598 448.016 193.118 446 196.61 446C199.31 446 201.434 446.72 203.63 448.376L202.19 450.392C200.426 449.132 198.518 448.448 196.61 448.448C194.594 448.448 193.226 449.42 193.226 450.896C193.226 452.984 195.998 453.488 197.33 453.704C200.462 454.244 204.062 455.324 204.062 459.032C204.062 462.272 201.326 464.36 197.474 464.36ZM213.849 464.36C210.789 464.36 207.945 463.316 206.181 461.444L207.621 459.464C209.169 461.048 211.545 461.912 213.777 461.912C216.117 461.912 217.809 460.796 217.809 459.14C217.809 457.088 215.145 456.584 213.345 456.26C210.537 455.756 206.973 454.748 206.973 451.076C206.973 448.016 209.493 446 212.985 446C215.685 446 217.809 446.72 220.005 448.376L218.565 450.392C216.801 449.132 214.893 448.448 212.985 448.448C210.969 448.448 209.601 449.42 209.601 450.896C209.601 452.984 212.373 453.488 213.705 453.704C216.837 454.244 220.437 455.324 220.437 459.032C220.437 462.272 217.701 464.36 213.849 464.36ZM245.332 449.528L245.476 446.36H247.996V462.02C247.996 467.996 244.828 471.668 239.644 471.668C236.44 471.668 233.56 470.444 231.652 468.248L233.272 466.304C235.072 468.212 237.088 469.112 239.536 469.112C243.172 469.112 245.26 466.556 245.26 462.056V460.94C243.856 463.064 241.624 464.36 238.996 464.36C234.388 464.36 231.076 460.472 231.076 455.144C231.076 449.852 234.424 446 238.996 446C241.66 446 243.928 447.332 245.332 449.528ZM239.536 461.804C242.848 461.804 245.26 459.032 245.26 455.144C245.26 451.328 242.848 448.556 239.536 448.556C236.224 448.556 233.812 451.328 233.812 455.144C233.812 459.032 236.224 461.804 239.536 461.804ZM254.91 464H252.174V446.36H254.658L254.73 449.924H254.766C255.846 447.368 257.862 445.928 260.49 445.928C260.814 445.928 261.102 445.964 261.426 446.036L261.246 448.592C260.85 448.52 260.526 448.484 260.094 448.484C257.574 448.484 255.738 450.464 255.09 453.956C254.946 454.64 254.91 455.612 254.91 457.34V464ZM270.95 464.36C266.018 464.36 262.49 460.544 262.49 455.18C262.49 449.816 266.018 446 270.95 446C275.882 446 279.41 449.816 279.41 455.18C279.41 460.544 275.882 464.36 270.95 464.36ZM270.95 461.804C274.298 461.804 276.674 459.068 276.674 455.18C276.674 451.292 274.298 448.556 270.95 448.556C267.602 448.556 265.226 451.292 265.226 455.18C265.226 459.068 267.602 461.804 270.95 461.804ZM299.061 460.58L302.769 446.36H305.613L300.753 464H297.765L293.229 449.78L288.657 464H285.669L280.845 446.36H283.653L287.361 460.58L291.897 446.36H294.525L299.061 460.58ZM316.106 464.36C312.038 464.36 310.202 462.272 310.202 457.628V448.916H307.142V446.36H310.202V440.672H312.938V446.36H318.482V448.916H312.938V457.628C312.938 460.472 314.018 461.804 316.322 461.804C317.042 461.804 317.834 461.66 318.59 461.408L318.95 463.928C318.05 464.216 317.006 464.36 316.106 464.36ZM330.501 446C334.317 446 336.729 448.664 336.729 452.876V464H333.993V453.02C333.993 450.104 332.589 448.556 329.997 448.556C327.189 448.556 325.245 450.356 324.633 453.452C324.489 454.172 324.453 454.892 324.453 456.908V464H321.717V437.54H324.453V449.528C325.677 447.26 327.873 446 330.501 446ZM365.405 460.58L369.113 446.36H371.957L367.097 464H364.109L359.573 449.78L355.001 464H352.013L347.189 446.36H349.997L353.705 460.58L358.241 446.36H360.869L365.405 460.58ZM377.308 442.328H374.284V438.764H377.308V442.328ZM377.164 464H374.428V446.36H377.164V464ZM388.946 464.36C384.878 464.36 383.042 462.272 383.042 457.628V448.916H379.982V446.36H383.042V440.672H385.778V446.36H391.322V448.916H385.778V457.628C385.778 460.472 386.858 461.804 389.162 461.804C389.882 461.804 390.674 461.66 391.43 461.408L391.79 463.928C390.89 464.216 389.846 464.36 388.946 464.36ZM403.341 446C407.157 446 409.569 448.664 409.569 452.876V464H406.833V453.02C406.833 450.104 405.429 448.556 402.837 448.556C400.029 448.556 398.085 450.356 397.473 453.452C397.329 454.172 397.293 454.892 397.293 456.908V464H394.557V437.54H397.293V449.528C398.517 447.26 400.713 446 403.341 446ZM426.5 464H423.764V448.916H420.704V446.36H423.764V443.804C423.764 439.196 425.6 437.108 429.668 437.108C430.532 437.108 431.576 437.252 432.512 437.54L432.152 440.06C431.324 439.808 430.568 439.664 429.884 439.664C427.58 439.664 426.5 440.996 426.5 443.804V446.36H431.576V448.916H426.5V464ZM446.744 449.384V446.36H449.48V464H446.96L446.816 460.832C445.412 463.028 443.18 464.36 440.48 464.36C435.908 464.36 432.56 460.508 432.56 455.18C432.56 449.852 435.908 445.964 440.48 445.964C443.108 445.964 445.34 447.26 446.744 449.384ZM441.02 461.804C444.332 461.804 446.744 459.032 446.744 455.18C446.744 451.328 444.332 448.556 441.02 448.556C437.708 448.556 435.296 451.328 435.296 455.18C435.296 459.032 437.708 461.804 441.02 461.804ZM459.818 464.36C456.758 464.36 453.914 463.316 452.15 461.444L453.59 459.464C455.138 461.048 457.514 461.912 459.746 461.912C462.086 461.912 463.778 460.796 463.778 459.14C463.778 457.088 461.114 456.584 459.314 456.26C456.506 455.756 452.942 454.748 452.942 451.076C452.942 448.016 455.462 446 458.954 446C461.654 446 463.778 446.72 465.974 448.376L464.534 450.392C462.77 449.132 460.862 448.448 458.954 448.448C456.938 448.448 455.57 449.42 455.57 450.896C455.57 452.984 458.342 453.488 459.674 453.704C462.806 454.244 466.406 455.324 466.406 459.032C466.406 462.272 463.67 464.36 459.818 464.36ZM476.438 464.36C472.37 464.36 470.534 462.272 470.534 457.628V448.916H467.474V446.36H470.534V440.672H473.27V446.36H478.814V448.916H473.27V457.628C473.27 460.472 474.35 461.804 476.654 461.804C477.374 461.804 478.166 461.66 478.922 461.408L479.282 463.928C478.382 464.216 477.338 464.36 476.438 464.36ZM489.055 464.36C484.159 464.36 480.595 460.508 480.595 455.18C480.595 449.816 484.015 446 488.875 446C493.699 446 497.155 449.78 497.155 455.072C497.155 455.54 497.119 455.936 497.083 456.296H483.367C483.835 459.608 486.103 461.804 489.055 461.804C491.323 461.804 492.979 460.868 494.491 458.672L496.651 460.076C495.031 462.884 492.403 464.36 489.055 464.36ZM483.403 453.848H494.347C494.059 450.68 491.863 448.556 488.875 448.556C485.995 448.556 483.835 450.68 483.403 453.848ZM503.234 464H500.498V446.36H502.982L503.054 449.924H503.09C504.17 447.368 506.186 445.928 508.814 445.928C509.138 445.928 509.426 445.964 509.75 446.036L509.57 448.592C509.174 448.52 508.85 448.484 508.418 448.484C505.898 448.484 504.062 450.464 503.414 453.956C503.27 454.64 503.234 455.612 503.234 457.34V464ZM510.354 464V460.364H513.63V465.224C513.63 467.42 512.766 468.644 510.354 469.076V467.528C511.686 467.168 511.83 466.268 511.83 465.188V464H510.354ZM542.866 446C546.43 446 548.554 448.628 548.554 453.056V464H545.818V453.02C545.818 450.14 544.522 448.556 542.218 448.556C539.77 448.556 538.078 450.392 537.61 453.488C537.502 454.244 537.466 455.144 537.466 456.944V464H534.766V453.02C534.766 450.176 533.47 448.556 531.202 448.556C528.646 448.556 527.026 450.356 526.558 453.488C526.45 454.244 526.414 455.144 526.414 456.944V464H523.678V446.36H526.162L526.234 449.24H526.306C527.314 447.224 529.366 446 531.814 446C534.37 446 536.17 447.368 536.998 449.78C538.042 447.404 540.238 446 542.866 446ZM560.313 464.36C555.381 464.36 551.853 460.544 551.853 455.18C551.853 449.816 555.381 446 560.313 446C565.245 446 568.773 449.816 568.773 455.18C568.773 460.544 565.245 464.36 560.313 464.36ZM560.313 461.804C563.661 461.804 566.037 459.068 566.037 455.18C566.037 451.292 563.661 448.556 560.313 448.556C556.965 448.556 554.589 451.292 554.589 455.18C554.589 459.068 556.965 461.804 560.313 461.804ZM574.844 464H572.108V446.36H574.592L574.664 449.924H574.7C575.78 447.368 577.796 445.928 580.424 445.928C580.748 445.928 581.036 445.964 581.36 446.036L581.18 448.592C580.784 448.52 580.46 448.484 580.028 448.484C577.508 448.484 575.672 450.464 575.024 453.956C574.88 454.64 574.844 455.612 574.844 457.34V464ZM590.883 464.36C585.987 464.36 582.423 460.508 582.423 455.18C582.423 449.816 585.843 446 590.703 446C595.527 446 598.983 449.78 598.983 455.072C598.983 455.54 598.947 455.936 598.911 456.296H585.195C585.663 459.608 587.931 461.804 590.883 461.804C593.151 461.804 594.807 460.868 596.319 458.672L598.479 460.076C596.859 462.884 594.231 464.36 590.883 464.36ZM585.231 453.848H596.175C595.887 450.68 593.691 448.556 590.703 448.556C587.823 448.556 585.663 450.68 585.231 453.848ZM619.967 446C624.575 446 627.887 449.816 627.887 455.18C627.887 460.544 624.575 464.36 619.967 464.36C617.339 464.36 615.107 463.064 613.703 460.976V471.344H610.967V446.36H613.487L613.631 449.492C615.035 447.332 617.267 446 619.967 446ZM619.427 461.804C622.775 461.804 625.151 459.068 625.151 455.18C625.151 451.292 622.775 448.556 619.427 448.556C616.079 448.556 613.703 451.292 613.703 455.18C613.703 459.068 616.079 461.804 619.427 461.804ZM633.945 464H631.209V446.36H633.693L633.765 449.924H633.801C634.881 447.368 636.897 445.928 639.525 445.928C639.849 445.928 640.137 445.964 640.461 446.036L640.281 448.592C639.885 448.52 639.561 448.484 639.129 448.484C636.609 448.484 634.773 450.464 634.125 453.956C633.981 454.64 633.945 455.612 633.945 457.34V464ZM649.985 464.36C645.053 464.36 641.525 460.544 641.525 455.18C641.525 449.816 645.053 446 649.985 446C654.917 446 658.445 449.816 658.445 455.18C658.445 460.544 654.917 464.36 649.985 464.36ZM649.985 461.804C653.333 461.804 655.709 459.068 655.709 455.18C655.709 451.292 653.333 448.556 649.985 448.556C646.637 448.556 644.261 451.292 644.261 455.18C644.261 459.068 646.637 461.804 649.985 461.804ZM675.6 449.384V437.54H678.336V464H675.816L675.672 460.868C674.268 463.028 672.036 464.36 669.336 464.36C664.728 464.36 661.416 460.544 661.416 455.18C661.416 449.816 664.728 446 669.336 446C671.964 446 674.196 447.296 675.6 449.384ZM669.876 461.804C673.224 461.804 675.6 459.068 675.6 455.18C675.6 451.292 673.224 448.556 669.876 448.556C666.528 448.556 664.152 451.292 664.152 455.18C664.152 459.068 666.528 461.804 669.876 461.804ZM694.68 446.36H697.416V464H694.932L694.86 460.544H694.824C693.636 462.992 691.368 464.36 688.632 464.36C684.816 464.36 682.404 461.696 682.404 457.484V446.36H685.14V457.34C685.14 460.256 686.544 461.804 689.136 461.804C691.944 461.804 693.888 460.004 694.5 456.908C694.644 456.188 694.68 455.468 694.68 453.452V446.36ZM708.948 464.36C704.268 464.36 700.74 460.4 700.74 455.18C700.74 449.96 704.268 446 708.948 446C712.584 446 715.14 447.692 716.508 451.04L714.096 452.156C712.944 449.708 711.324 448.556 708.948 448.556C705.852 448.556 703.476 451.436 703.476 455.18C703.476 458.924 705.852 461.804 708.948 461.804C711.324 461.804 712.944 460.652 714.096 458.204L716.508 459.32C715.14 462.668 712.584 464.36 708.948 464.36ZM726.942 464.36C722.874 464.36 721.038 462.272 721.038 457.628V448.916H717.978V446.36H721.038V440.672H723.774V446.36H729.318V448.916H723.774V457.628C723.774 460.472 724.854 461.804 727.158 461.804C727.878 461.804 728.67 461.66 729.426 461.408L729.786 463.928C728.886 464.216 727.842 464.36 726.942 464.36ZM735.468 442.328H732.444V438.764H735.468V442.328ZM735.324 464H732.588V446.36H735.324V464ZM745.813 461.12L751.177 446.36H754.021L747.397 464H744.229L737.605 446.36H740.449L745.813 461.12ZM763.415 464.36C758.519 464.36 754.955 460.508 754.955 455.18C754.955 449.816 758.375 446 763.235 446C768.059 446 771.515 449.78 771.515 455.072C771.515 455.54 771.479 455.936 771.443 456.296H757.727C758.195 459.608 760.463 461.804 763.415 461.804C765.683 461.804 767.339 460.868 768.851 458.672L771.011 460.076C769.391 462.884 766.763 464.36 763.415 464.36ZM757.763 453.848H768.707C768.419 450.68 766.223 448.556 763.235 448.556C760.355 448.556 758.195 450.68 757.763 453.848ZM789.798 464.36C786.738 464.36 783.894 463.316 782.13 461.444L783.57 459.464C785.118 461.048 787.494 461.912 789.726 461.912C792.066 461.912 793.758 460.796 793.758 459.14C793.758 457.088 791.094 456.584 789.294 456.26C786.486 455.756 782.922 454.748 782.922 451.076C782.922 448.016 785.442 446 788.934 446C791.634 446 793.758 446.72 795.954 448.376L794.514 450.392C792.75 449.132 790.842 448.448 788.934 448.448C786.918 448.448 785.55 449.42 785.55 450.896C785.55 452.984 788.322 453.488 789.654 453.704C792.786 454.244 796.386 455.324 796.386 459.032C796.386 462.272 793.65 464.36 789.798 464.36ZM807.336 464.36C802.44 464.36 798.876 460.508 798.876 455.18C798.876 449.816 802.296 446 807.156 446C811.98 446 815.436 449.78 815.436 455.072C815.436 455.54 815.4 455.936 815.364 456.296H801.648C802.116 459.608 804.384 461.804 807.336 461.804C809.604 461.804 811.26 460.868 812.772 458.672L814.932 460.076C813.312 462.884 810.684 464.36 807.336 464.36ZM801.684 453.848H812.628C812.34 450.68 810.144 448.556 807.156 448.556C804.276 448.556 802.116 450.68 801.684 453.848ZM821.516 464H818.78V437.54H821.516V464ZM828.504 464H825.768V437.54H828.504V464ZM835.601 442.328H832.577V438.764H835.601V442.328ZM835.457 464H832.721V446.36H835.457V464ZM842.41 464H839.674V446.36H842.158L842.23 449.816H842.266C843.454 447.368 845.722 446 848.458 446C852.274 446 854.686 448.664 854.686 452.876V464H851.95V453.02C851.95 450.104 850.546 448.556 847.954 448.556C845.146 448.556 843.202 450.356 842.59 453.452C842.446 454.172 842.41 454.892 842.41 456.908V464ZM872.261 449.528L872.405 446.36H874.925V462.02C874.925 467.996 871.757 471.668 866.573 471.668C863.369 471.668 860.489 470.444 858.581 468.248L860.201 466.304C862.001 468.212 864.017 469.112 866.465 469.112C870.101 469.112 872.189 466.556 872.189 462.056V460.94C870.785 463.064 868.553 464.36 865.925 464.36C861.317 464.36 858.005 460.472 858.005 455.144C858.005 449.852 861.353 446 865.925 446C868.589 446 870.857 447.332 872.261 449.528ZM866.465 461.804C869.777 461.804 872.189 459.032 872.189 455.144C872.189 451.328 869.777 448.556 866.465 448.556C863.153 448.556 860.741 451.328 860.741 455.144C860.741 459.032 863.153 461.804 866.465 461.804Z" fill="white"/>
<path d="M899.121 452.707L904.414 447.414L903 446L897.707 451.293L892.414 446L891 447.414L896.293 452.707L891 458L892.414 459.414L897.707 454.121L903 459.414L904.414 458L899.121 452.707Z" fill="white"/>
<mask id="path-14-outside-4_5508_11751" maskUnits="userSpaceOnUse" x="0" y="498" width="711" height="61" fill="black">
<rect fill="white" y="498" width="711" height="61"/>
<path d="M0 498H711V557H0V498Z"/>
</mask>
<path d="M711 555H0V559H711V555Z" fill="white" fill-opacity="0.6" mask="url(#path-14-outside-4_5508_11751)"/>
<path d="M27.288 513.26V539H24.336V518.192L15.948 539H13.788L5.4 518.192V539H2.448V513.26H6.336L14.868 534.572L23.4 513.26H27.288ZM44.9784 524.384V521.36H47.7144V539H45.1944L45.0504 535.832C43.6464 538.028 41.4144 539.36 38.7144 539.36C34.1424 539.36 30.7944 535.508 30.7944 530.18C30.7944 524.852 34.1424 520.964 38.7144 520.964C41.3424 520.964 43.5744 522.26 44.9784 524.384ZM39.2544 536.804C42.5664 536.804 44.9784 534.032 44.9784 530.18C44.9784 526.328 42.5664 523.556 39.2544 523.556C35.9424 523.556 33.5304 526.328 33.5304 530.18C33.5304 534.032 35.9424 536.804 39.2544 536.804ZM59.6071 530.036L66.2671 539H63.1351L57.9871 531.728L52.8031 539H49.6711L56.3311 530.036L49.8511 521.36H52.9831L57.9871 528.308L62.9551 521.36H66.0871L59.6071 530.036ZM71.1128 517.328H68.0888V513.764H71.1128V517.328ZM70.9688 539H68.2328V521.36H70.9688V539ZM94.374 521C97.938 521 100.062 523.628 100.062 528.056V539H97.326V528.02C97.326 525.14 96.03 523.556 93.726 523.556C91.278 523.556 89.586 525.392 89.118 528.488C89.01 529.244 88.974 530.144 88.974 531.944V539H86.274V528.02C86.274 525.176 84.978 523.556 82.71 523.556C80.154 523.556 78.534 525.356 78.066 528.488C77.958 529.244 77.922 530.144 77.922 531.944V539H75.186V521.36H77.67L77.742 524.24H77.814C78.822 522.224 80.874 521 83.322 521C85.878 521 87.678 522.368 88.506 524.78C89.55 522.404 91.746 521 94.374 521ZM106.992 517.328H103.968V513.764H106.992V517.328ZM106.848 539H104.112V521.36H106.848V539ZM124.245 523.916L113.589 536.444H124.461V539H110.169V536.444L120.861 523.916H110.493V521.36H124.245V523.916ZM134.797 539.36C129.901 539.36 126.337 535.508 126.337 530.18C126.337 524.816 129.757 521 134.617 521C139.441 521 142.897 524.78 142.897 530.072C142.897 530.54 142.861 530.936 142.825 531.296H129.109C129.577 534.608 131.845 536.804 134.797 536.804C137.065 536.804 138.721 535.868 140.233 533.672L142.393 535.076C140.773 537.884 138.145 539.36 134.797 539.36ZM129.145 528.848H140.089C139.801 525.68 137.605 523.556 134.617 523.556C131.737 523.556 129.577 525.68 129.145 528.848ZM167.998 524.384V521.36H170.734V539H168.214L168.07 535.832C166.666 538.028 164.434 539.36 161.734 539.36C157.162 539.36 153.814 535.508 153.814 530.18C153.814 524.852 157.162 520.964 161.734 520.964C164.362 520.964 166.594 522.26 167.998 524.384ZM162.274 536.804C165.586 536.804 167.998 534.032 167.998 530.18C167.998 526.328 165.586 523.556 162.274 523.556C158.962 523.556 156.55 526.328 156.55 530.18C156.55 534.032 158.962 536.804 162.274 536.804ZM188.312 524.528L188.456 521.36H190.976V537.02C190.976 542.996 187.808 546.668 182.624 546.668C179.42 546.668 176.54 545.444 174.632 543.248L176.252 541.304C178.052 543.212 180.068 544.112 182.516 544.112C186.152 544.112 188.24 541.556 188.24 537.056V535.94C186.836 538.064 184.604 539.36 181.976 539.36C177.368 539.36 174.056 535.472 174.056 530.144C174.056 524.852 177.404 521 181.976 521C184.64 521 186.908 522.332 188.312 524.528ZM182.516 536.804C185.828 536.804 188.24 534.032 188.24 530.144C188.24 526.328 185.828 523.556 182.516 523.556C179.204 523.556 176.792 526.328 176.792 530.144C176.792 534.032 179.204 536.804 182.516 536.804ZM197.891 539H195.155V521.36H197.639L197.711 524.924H197.747C198.827 522.368 200.843 520.928 203.471 520.928C203.795 520.928 204.083 520.964 204.407 521.036L204.227 523.592C203.831 523.52 203.507 523.484 203.075 523.484C200.555 523.484 198.719 525.464 198.071 528.956C197.927 529.64 197.891 530.612 197.891 532.34V539ZM213.93 539.36C209.034 539.36 205.47 535.508 205.47 530.18C205.47 524.816 208.89 521 213.75 521C218.574 521 222.03 524.78 222.03 530.072C222.03 530.54 221.994 530.936 221.958 531.296H208.242C208.71 534.608 210.978 536.804 213.93 536.804C216.198 536.804 217.854 535.868 219.366 533.672L221.526 535.076C219.906 537.884 217.278 539.36 213.93 539.36ZM208.278 528.848H219.222C218.934 525.68 216.738 523.556 213.75 523.556C210.87 523.556 208.71 525.68 208.278 528.848ZM233.434 539.36C228.538 539.36 224.974 535.508 224.974 530.18C224.974 524.816 228.394 521 233.254 521C238.078 521 241.534 524.78 241.534 530.072C241.534 530.54 241.498 530.936 241.462 531.296H227.746C228.214 534.608 230.482 536.804 233.434 536.804C235.702 536.804 237.358 535.868 238.87 533.672L241.03 535.076C239.41 537.884 236.782 539.36 233.434 539.36ZM227.782 528.848H238.726C238.438 525.68 236.242 523.556 233.254 523.556C230.374 523.556 228.214 525.68 227.782 528.848ZM264.065 521C267.629 521 269.753 523.628 269.753 528.056V539H267.017V528.02C267.017 525.14 265.721 523.556 263.417 523.556C260.969 523.556 259.277 525.392 258.809 528.488C258.701 529.244 258.665 530.144 258.665 531.944V539H255.965V528.02C255.965 525.176 254.669 523.556 252.401 523.556C249.845 523.556 248.225 525.356 247.757 528.488C247.649 529.244 247.613 530.144 247.613 531.944V539H244.877V521.36H247.361L247.433 524.24H247.505C248.513 522.224 250.565 521 253.013 521C255.569 521 257.369 522.368 258.197 524.78C259.241 522.404 261.437 521 264.065 521ZM281.512 539.36C276.616 539.36 273.052 535.508 273.052 530.18C273.052 524.816 276.472 521 281.332 521C286.156 521 289.612 524.78 289.612 530.072C289.612 530.54 289.576 530.936 289.54 531.296H275.824C276.292 534.608 278.56 536.804 281.512 536.804C283.78 536.804 285.436 535.868 286.948 533.672L289.108 535.076C287.488 537.884 284.86 539.36 281.512 539.36ZM275.86 528.848H286.804C286.516 525.68 284.32 523.556 281.332 523.556C278.452 523.556 276.292 525.68 275.86 528.848ZM295.692 539H292.956V521.36H295.439L295.512 524.816H295.548C296.736 522.368 299.004 521 301.74 521C305.556 521 307.968 523.664 307.968 527.876V539H305.232V528.02C305.232 525.104 303.828 523.556 301.236 523.556C298.428 523.556 296.484 525.356 295.872 528.452C295.728 529.172 295.692 529.892 295.692 531.908V539ZM318.863 539.36C314.795 539.36 312.959 537.272 312.959 532.628V523.916H309.899V521.36H312.959V515.672H315.695V521.36H321.239V523.916H315.695V532.628C315.695 535.472 316.775 536.804 319.079 536.804C319.799 536.804 320.591 536.66 321.347 536.408L321.707 538.928C320.807 539.216 319.763 539.36 318.863 539.36ZM338.333 536.12L343.697 521.36H346.541L339.917 539H336.749L330.125 521.36H332.969L338.333 536.12ZM361.658 524.384V521.36H364.394V539H361.874L361.73 535.832C360.326 538.028 358.094 539.36 355.394 539.36C350.822 539.36 347.474 535.508 347.474 530.18C347.474 524.852 350.822 520.964 355.394 520.964C358.022 520.964 360.254 522.26 361.658 524.384ZM355.934 536.804C359.246 536.804 361.658 534.032 361.658 530.18C361.658 526.328 359.246 523.556 355.934 523.556C352.622 523.556 350.21 526.328 350.21 530.18C350.21 534.032 352.622 536.804 355.934 536.804ZM371.344 539H368.608V512.54H371.344V539ZM387.692 521.36H390.428V539H387.944L387.872 535.544H387.836C386.648 537.992 384.38 539.36 381.644 539.36C377.828 539.36 375.416 536.696 375.416 532.484V521.36H378.152V532.34C378.152 535.256 379.556 536.804 382.148 536.804C384.956 536.804 386.9 535.004 387.512 531.908C387.656 531.188 387.692 530.468 387.692 528.452V521.36ZM402.211 539.36C397.315 539.36 393.751 535.508 393.751 530.18C393.751 524.816 397.171 521 402.031 521C406.855 521 410.311 524.78 410.311 530.072C410.311 530.54 410.275 530.936 410.239 531.296H396.523C396.991 534.608 399.259 536.804 402.211 536.804C404.479 536.804 406.135 535.868 407.647 533.672L409.807 535.076C408.187 537.884 405.559 539.36 402.211 539.36ZM396.559 528.848H407.503C407.215 525.68 405.019 523.556 402.031 523.556C399.151 523.556 396.991 525.68 396.559 528.848ZM435.412 524.384V521.36H438.148V539H435.628L435.484 535.832C434.08 538.028 431.848 539.36 429.148 539.36C424.576 539.36 421.228 535.508 421.228 530.18C421.228 524.852 424.576 520.964 429.148 520.964C431.776 520.964 434.008 522.26 435.412 524.384ZM429.688 536.804C433 536.804 435.412 534.032 435.412 530.18C435.412 526.328 433 523.556 429.688 523.556C426.376 523.556 423.964 526.328 423.964 530.18C423.964 534.032 426.376 536.804 429.688 536.804ZM445.098 539H442.362V521.36H444.846L444.918 524.816H444.954C446.142 522.368 448.41 521 451.146 521C454.962 521 457.374 523.664 457.374 527.876V539H454.638V528.02C454.638 525.104 453.234 523.556 450.642 523.556C447.834 523.556 445.89 525.356 445.278 528.452C445.134 529.172 445.098 529.892 445.098 531.908V539ZM474.877 524.384V512.54H477.613V539H475.093L474.949 535.868C473.545 538.028 471.313 539.36 468.613 539.36C464.005 539.36 460.693 535.544 460.693 530.18C460.693 524.816 464.005 521 468.613 521C471.241 521 473.473 522.296 474.877 524.384ZM469.153 536.804C472.501 536.804 474.877 534.068 474.877 530.18C474.877 526.292 472.501 523.556 469.153 523.556C465.805 523.556 463.429 526.292 463.429 530.18C463.429 534.068 465.805 536.804 469.153 536.804ZM492.887 539H490.151V512.54H492.887V539ZM499.984 517.328H496.96V513.764H499.984V517.328ZM499.84 539H497.104V521.36H499.84V539ZM523.245 521C526.809 521 528.933 523.628 528.933 528.056V539H526.197V528.02C526.197 525.14 524.901 523.556 522.597 523.556C520.149 523.556 518.457 525.392 517.989 528.488C517.881 529.244 517.845 530.144 517.845 531.944V539H515.145V528.02C515.145 525.176 513.849 523.556 511.581 523.556C509.025 523.556 507.405 525.356 506.937 528.488C506.829 529.244 506.793 530.144 506.793 531.944V539H504.057V521.36H506.541L506.613 524.24H506.685C507.693 522.224 509.745 521 512.193 521C514.749 521 516.549 522.368 517.377 524.78C518.421 522.404 520.617 521 523.245 521ZM535.863 517.328H532.839V513.764H535.863V517.328ZM535.719 539H532.983V521.36H535.719V539ZM547.5 539.36C543.432 539.36 541.596 537.272 541.596 532.628V523.916H538.536V521.36H541.596V515.672H544.332V521.36H549.876V523.916H544.332V532.628C544.332 535.472 545.412 536.804 547.716 536.804C548.436 536.804 549.228 536.66 549.984 536.408L550.344 538.928C549.444 539.216 548.4 539.36 547.5 539.36ZM564.207 539H561.471V512.54H564.207V539ZM575.993 539.36C571.097 539.36 567.533 535.508 567.533 530.18C567.533 524.816 570.953 521 575.813 521C580.637 521 584.093 524.78 584.093 530.072C584.093 530.54 584.057 530.936 584.021 531.296H570.305C570.773 534.608 573.041 536.804 575.993 536.804C578.261 536.804 579.917 535.868 581.429 533.672L583.589 535.076C581.969 537.884 579.341 539.36 575.993 539.36ZM570.341 528.848H581.285C580.997 525.68 578.801 523.556 575.813 523.556C572.933 523.556 570.773 525.68 570.341 528.848ZM601.221 524.384V521.36H603.957V539H601.437L601.293 535.832C599.889 538.028 597.657 539.36 594.957 539.36C590.385 539.36 587.037 535.508 587.037 530.18C587.037 524.852 590.385 520.964 594.957 520.964C597.585 520.964 599.817 522.26 601.221 524.384ZM595.497 536.804C598.809 536.804 601.221 534.032 601.221 530.18C601.221 526.328 598.809 523.556 595.497 523.556C592.185 523.556 589.773 526.328 589.773 530.18C589.773 534.032 592.185 536.804 595.497 536.804ZM623.938 539H620.662L614.326 530.216L610.906 533.744V539H608.17V512.54H610.906V530.216L619.258 521.36H622.858L616.162 528.308L623.938 539ZM638.084 524.384V521.36H640.82V539H638.3L638.156 535.832C636.752 538.028 634.52 539.36 631.82 539.36C627.248 539.36 623.9 535.508 623.9 530.18C623.9 524.852 627.248 520.964 631.82 520.964C634.448 520.964 636.68 522.26 638.084 524.384ZM632.36 536.804C635.672 536.804 638.084 534.032 638.084 530.18C638.084 526.328 635.672 523.556 632.36 523.556C629.048 523.556 626.636 526.328 626.636 530.18C626.636 534.032 629.048 536.804 632.36 536.804ZM658.398 524.528L658.542 521.36H661.062V537.02C661.062 542.996 657.894 546.668 652.71 546.668C649.506 546.668 646.626 545.444 644.718 543.248L646.338 541.304C648.138 543.212 650.154 544.112 652.602 544.112C656.238 544.112 658.326 541.556 658.326 537.056V535.94C656.922 538.064 654.69 539.36 652.062 539.36C647.454 539.36 644.142 535.472 644.142 530.144C644.142 524.852 647.49 521 652.062 521C654.726 521 656.994 522.332 658.398 524.528ZM652.602 536.804C655.914 536.804 658.326 534.032 658.326 530.144C658.326 526.328 655.914 523.556 652.602 523.556C649.29 523.556 646.878 526.328 646.878 530.144C646.878 534.032 649.29 536.804 652.602 536.804ZM672.844 539.36C667.948 539.36 664.384 535.508 664.384 530.18C664.384 524.816 667.804 521 672.664 521C677.488 521 680.944 524.78 680.944 530.072C680.944 530.54 680.908 530.936 680.872 531.296H667.156C667.624 534.608 669.892 536.804 672.844 536.804C675.112 536.804 676.768 535.868 678.28 533.672L680.44 535.076C678.82 537.884 676.192 539.36 672.844 539.36ZM667.192 528.848H678.136C677.848 525.68 675.652 523.556 672.664 523.556C669.784 523.556 667.624 525.68 667.192 528.848Z" fill="white"/>
<path d="M704.121 527.707L709.414 522.414L708 521L702.707 526.293L697.414 521L696 522.414L701.293 527.707L696 533L697.414 534.414L702.707 529.121L708 534.414L709.414 533L704.121 527.707Z" fill="white"/>
<path d="M727 527.5C727 511.208 740.208 498 756.5 498H945.5C961.792 498 975 511.208 975 527.5V527.5C975 543.792 961.792 557 945.5 557H756.5C740.208 557 727 543.792 727 527.5V527.5Z" fill="#130032" fill-opacity="0.1"/>
<path d="M775.228 539H772.132L769.576 532.196H757.444L754.852 539H751.792L761.62 513.26H765.364L775.228 539ZM763.528 516.104L758.488 529.424H768.532L763.528 516.104ZM790.529 524.384V512.54H793.265V539H790.745L790.601 535.868C789.197 538.028 786.965 539.36 784.265 539.36C779.657 539.36 776.345 535.544 776.345 530.18C776.345 524.816 779.657 521 784.265 521C786.893 521 789.125 522.296 790.529 524.384ZM784.805 536.804C788.153 536.804 790.529 534.068 790.529 530.18C790.529 526.292 788.153 523.556 784.805 523.556C781.457 523.556 779.081 526.292 779.081 530.18C779.081 534.068 781.457 536.804 784.805 536.804ZM810.771 524.384V512.54H813.507V539H810.987L810.843 535.868C809.439 538.028 807.207 539.36 804.507 539.36C799.899 539.36 796.587 535.544 796.587 530.18C796.587 524.816 799.899 521 804.507 521C807.135 521 809.367 522.296 810.771 524.384ZM805.047 536.804C808.395 536.804 810.771 534.068 810.771 530.18C810.771 526.292 808.395 523.556 805.047 523.556C801.699 523.556 799.323 526.292 799.323 530.18C799.323 534.068 801.699 536.804 805.047 536.804ZM833.065 513.26C839.257 513.26 843.001 516.392 843.001 521.504C843.001 526.688 839.257 529.784 833.065 529.784H829.177V539H826.225V513.26H833.065ZM829.177 526.976H833.065C837.637 526.976 840.049 525.068 840.049 521.504C840.049 517.976 837.601 516.068 833.065 516.068H829.177V526.976ZM849.164 539H846.428V521.36H848.912L848.984 524.924H849.02C850.1 522.368 852.116 520.928 854.744 520.928C855.068 520.928 855.356 520.964 855.68 521.036L855.5 523.592C855.104 523.52 854.78 523.484 854.348 523.484C851.828 523.484 849.992 525.464 849.344 528.956C849.2 529.64 849.164 530.612 849.164 532.34V539ZM861.64 517.328H858.616V513.764H861.64V517.328ZM861.496 539H858.76V521.36H861.496V539ZM873.317 539.36C868.385 539.36 864.857 535.544 864.857 530.18C864.857 524.816 868.385 521 873.317 521C878.249 521 881.777 524.816 881.777 530.18C881.777 535.544 878.249 539.36 873.317 539.36ZM873.317 536.804C876.665 536.804 879.041 534.068 879.041 530.18C879.041 526.292 876.665 523.556 873.317 523.556C869.969 523.556 867.593 526.292 867.593 530.18C867.593 534.068 869.969 536.804 873.317 536.804ZM887.848 539H885.112V521.36H887.596L887.668 524.924H887.704C888.784 522.368 890.8 520.928 893.428 520.928C893.752 520.928 894.04 520.964 894.364 521.036L894.184 523.592C893.788 523.52 893.464 523.484 893.032 523.484C890.512 523.484 888.676 525.464 888.028 528.956C887.884 529.64 887.848 530.612 887.848 532.34V539ZM900.324 517.328H897.3V513.764H900.324V517.328ZM900.18 539H897.444V521.36H900.18V539ZM911.961 539.36C907.893 539.36 906.057 537.272 906.057 532.628V523.916H902.997V521.36H906.057V515.672H908.793V521.36H914.337V523.916H908.793V532.628C908.793 535.472 909.873 536.804 912.177 536.804C912.897 536.804 913.689 536.66 914.445 536.408L914.805 538.928C913.905 539.216 912.861 539.36 911.961 539.36ZM920.488 517.328H917.464V513.764H920.488V517.328ZM920.344 539H917.608V521.36H920.344V539ZM932.165 539.36C927.269 539.36 923.705 535.508 923.705 530.18C923.705 524.816 927.125 521 931.985 521C936.809 521 940.265 524.78 940.265 530.072C940.265 530.54 940.229 530.936 940.193 531.296H926.477C926.945 534.608 929.213 536.804 932.165 536.804C934.433 536.804 936.089 535.868 937.601 533.672L939.761 535.076C938.141 537.884 935.513 539.36 932.165 539.36ZM926.513 528.848H937.457C937.169 525.68 934.973 523.556 931.985 523.556C929.105 523.556 926.945 525.68 926.513 528.848ZM950.048 539.36C946.988 539.36 944.144 538.316 942.38 536.444L943.82 534.464C945.368 536.048 947.744 536.912 949.976 536.912C952.316 536.912 954.008 535.796 954.008 534.14C954.008 532.088 951.344 531.584 949.544 531.26C946.736 530.756 943.172 529.748 943.172 526.076C943.172 523.016 945.692 521 949.184 521C951.884 521 954.008 521.72 956.204 523.376L954.764 525.392C953 524.132 951.092 523.448 949.184 523.448C947.168 523.448 945.8 524.42 945.8 525.896C945.8 527.984 948.572 528.488 949.904 528.704C953.036 529.244 956.636 530.324 956.636 534.032C956.636 537.272 953.9 539.36 950.048 539.36Z" fill="white" fill-opacity="0.8"/>
<g opacity="0.5">
<path d="M20.088 122.26V125.068H5.4V133.384H17.316V136.156H5.4V145.192H20.088V148H2.448V122.26H20.088ZM29.4498 145.12L34.8138 130.36H37.6578L31.0338 148H27.8658L21.2418 130.36H24.0858L29.4498 145.12ZM47.0513 148.36C42.1553 148.36 38.5913 144.508 38.5913 139.18C38.5913 133.816 42.0113 130 46.8713 130C51.6953 130 55.1513 133.78 55.1513 139.072C55.1513 139.54 55.1153 139.936 55.0793 140.296H41.3633C41.8313 143.608 44.0993 145.804 47.0513 145.804C49.3193 145.804 50.9753 144.868 52.4873 142.672L54.6473 144.076C53.0273 146.884 50.3993 148.36 47.0513 148.36ZM41.3993 137.848H52.3433C52.0553 134.68 49.8593 132.556 46.8713 132.556C43.9913 132.556 41.8313 134.68 41.3993 137.848ZM61.2306 148H58.4946V130.36H60.9786L61.0506 133.924H61.0866C62.1666 131.368 64.1826 129.928 66.8106 129.928C67.1346 129.928 67.4226 129.964 67.7466 130.036L67.5666 132.592C67.1706 132.52 66.8466 132.484 66.4146 132.484C63.8946 132.484 62.0586 134.464 61.4106 137.956C61.2666 138.64 61.2306 139.612 61.2306 141.34V148ZM72.6567 155.344C71.3967 155.344 70.5687 155.128 69.7767 154.804L70.3887 152.536C70.8927 152.716 71.5047 152.86 72.3327 152.86C73.8807 152.86 75.0687 151.924 75.9687 149.692L76.7967 147.64L69.4527 130.36H72.2967L78.0207 144.328L83.0967 130.36H85.9407L78.3447 150.448C76.9047 154.264 74.6367 155.344 72.6567 155.344ZM96.2661 155.344C95.0061 155.344 94.1781 155.128 93.3861 154.804L93.9981 152.536C94.5021 152.716 95.1141 152.86 95.9421 152.86C97.4901 152.86 98.6781 151.924 99.5781 149.692L100.406 147.64L93.0621 130.36H95.9061L101.63 144.328L106.706 130.36H109.55L101.954 150.448C100.514 154.264 98.2461 155.344 96.2661 155.344ZM118.942 148.36C114.046 148.36 110.482 144.508 110.482 139.18C110.482 133.816 113.902 130 118.762 130C123.586 130 127.042 133.78 127.042 139.072C127.042 139.54 127.006 139.936 126.97 140.296H113.254C113.722 143.608 115.99 145.804 118.942 145.804C121.21 145.804 122.866 144.868 124.378 142.672L126.538 144.076C124.918 146.884 122.29 148.36 118.942 148.36ZM113.29 137.848H124.234C123.946 134.68 121.75 132.556 118.762 132.556C115.882 132.556 113.722 134.68 113.29 137.848ZM144.17 133.384V130.36H146.906V148H144.386L144.242 144.832C142.838 147.028 140.606 148.36 137.906 148.36C133.334 148.36 129.986 144.508 129.986 139.18C129.986 133.852 133.334 129.964 137.906 129.964C140.534 129.964 142.766 131.26 144.17 133.384ZM138.446 145.804C141.758 145.804 144.17 143.032 144.17 139.18C144.17 135.328 141.758 132.556 138.446 132.556C135.134 132.556 132.722 135.328 132.722 139.18C132.722 143.032 135.134 145.804 138.446 145.804ZM153.856 148H151.12V130.36H153.604L153.676 133.924H153.712C154.792 131.368 156.808 129.928 159.436 129.928C159.76 129.928 160.048 129.964 160.372 130.036L160.192 132.592C159.796 132.52 159.472 132.484 159.04 132.484C156.52 132.484 154.684 134.464 154.036 137.956C153.892 138.64 153.856 139.612 153.856 141.34V148ZM160.975 148V144.364H164.251V149.224C164.251 151.42 163.387 152.644 160.975 153.076V151.528C162.307 151.168 162.451 150.268 162.451 149.188V148H160.975ZM193.487 130C197.051 130 199.175 132.628 199.175 137.056V148H196.439V137.02C196.439 134.14 195.143 132.556 192.839 132.556C190.391 132.556 188.699 134.392 188.231 137.488C188.123 138.244 188.087 139.144 188.087 140.944V148H185.387V137.02C185.387 134.176 184.091 132.556 181.823 132.556C179.267 132.556 177.647 134.356 177.179 137.488C177.071 138.244 177.035 139.144 177.035 140.944V148H174.299V130.36H176.783L176.855 133.24H176.927C177.935 131.224 179.987 130 182.435 130C184.991 130 186.791 131.368 187.619 133.78C188.663 131.404 190.859 130 193.487 130ZM203.684 155.344C202.424 155.344 201.596 155.128 200.804 154.804L201.416 152.536C201.92 152.716 202.532 152.86 203.36 152.86C204.908 152.86 206.096 151.924 206.996 149.692L207.824 147.64L200.48 130.36H203.324L209.048 144.328L214.124 130.36H216.968L209.372 150.448C207.932 154.264 205.664 155.344 203.684 155.344ZM234.192 148.36C229.26 148.36 225.732 144.544 225.732 139.18C225.732 133.816 229.26 130 234.192 130C239.124 130 242.652 133.816 242.652 139.18C242.652 144.544 239.124 148.36 234.192 148.36ZM234.192 145.804C237.54 145.804 239.916 143.068 239.916 139.18C239.916 135.292 237.54 132.556 234.192 132.556C230.844 132.556 228.468 135.292 228.468 139.18C228.468 143.068 230.844 145.804 234.192 145.804ZM248.723 148H245.987V130.36H248.471L248.543 133.924H248.579C249.659 131.368 251.675 129.928 254.303 129.928C254.627 129.928 254.915 129.964 255.239 130.036L255.059 132.592C254.663 132.52 254.339 132.484 253.907 132.484C251.387 132.484 249.551 134.464 248.903 137.956C248.759 138.64 248.723 139.612 248.723 141.34V148ZM270.558 133.528L270.702 130.36H273.222V146.02C273.222 151.996 270.054 155.668 264.87 155.668C261.666 155.668 258.786 154.444 256.878 152.248L258.498 150.304C260.298 152.212 262.314 153.112 264.762 153.112C268.398 153.112 270.486 150.556 270.486 146.056V144.94C269.082 147.064 266.85 148.36 264.222 148.36C259.614 148.36 256.302 144.472 256.302 139.144C256.302 133.852 259.65 130 264.222 130C266.886 130 269.154 131.332 270.558 133.528ZM264.762 145.804C268.074 145.804 270.486 143.032 270.486 139.144C270.486 135.328 268.074 132.556 264.762 132.556C261.45 132.556 259.038 135.328 259.038 139.144C259.038 143.032 261.45 145.804 264.762 145.804ZM290.728 133.384V130.36H293.464V148H290.944L290.8 144.832C289.396 147.028 287.164 148.36 284.464 148.36C279.892 148.36 276.544 144.508 276.544 139.18C276.544 133.852 279.892 129.964 284.464 129.964C287.092 129.964 289.324 131.26 290.728 133.384ZM285.004 145.804C288.316 145.804 290.728 143.032 290.728 139.18C290.728 135.328 288.316 132.556 285.004 132.556C281.692 132.556 279.28 135.328 279.28 139.18C279.28 143.032 281.692 145.804 285.004 145.804ZM300.414 148H297.678V130.36H300.162L300.234 133.816H300.27C301.458 131.368 303.726 130 306.462 130C310.278 130 312.69 132.664 312.69 136.876V148H309.954V137.02C309.954 134.104 308.55 132.556 305.958 132.556C303.15 132.556 301.206 134.356 300.594 137.452C300.45 138.172 300.414 138.892 300.414 140.908V148ZM319.64 126.328H316.616V122.764H319.64V126.328ZM319.496 148H316.76V130.36H319.496V148ZM336.894 132.916L326.238 145.444H337.11V148H322.818V145.444L333.51 132.916H323.142V130.36H336.894V132.916ZM353.17 133.384V130.36H355.906V148H353.386L353.242 144.832C351.838 147.028 349.606 148.36 346.906 148.36C342.334 148.36 338.986 144.508 338.986 139.18C338.986 133.852 342.334 129.964 346.906 129.964C349.534 129.964 351.766 131.26 353.17 133.384ZM347.446 145.804C350.758 145.804 353.17 143.032 353.17 139.18C353.17 135.328 350.758 132.556 347.446 132.556C344.134 132.556 341.722 135.328 341.722 139.18C341.722 143.032 344.134 145.804 347.446 145.804ZM367.543 148.36C363.475 148.36 361.639 146.272 361.639 141.628V132.916H358.579V130.36H361.639V124.672H364.375V130.36H369.919V132.916H364.375V141.628C364.375 144.472 365.455 145.804 367.759 145.804C368.479 145.804 369.271 145.66 370.027 145.408L370.387 147.928C369.487 148.216 368.443 148.36 367.543 148.36ZM376.07 126.328H373.046V122.764H376.07V126.328ZM375.926 148H373.19V130.36H375.926V148ZM387.747 148.36C382.815 148.36 379.287 144.544 379.287 139.18C379.287 133.816 382.815 130 387.747 130C392.679 130 396.207 133.816 396.207 139.18C396.207 144.544 392.679 148.36 387.747 148.36ZM387.747 145.804C391.095 145.804 393.471 143.068 393.471 139.18C393.471 135.292 391.095 132.556 387.747 132.556C384.399 132.556 382.023 135.292 382.023 139.18C382.023 143.068 384.399 145.804 387.747 145.804ZM402.277 148H399.541V130.36H402.025L402.097 133.816H402.133C403.321 131.368 405.589 130 408.325 130C412.141 130 414.553 132.664 414.553 136.876V148H411.817V137.02C411.817 134.104 410.413 132.556 407.821 132.556C405.013 132.556 403.069 134.356 402.457 137.452C402.313 138.172 402.277 138.892 402.277 140.908V148ZM434.053 148.36C429.373 148.36 425.845 144.4 425.845 139.18C425.845 133.96 429.373 130 434.053 130C437.689 130 440.245 131.692 441.613 135.04L439.201 136.156C438.049 133.708 436.429 132.556 434.053 132.556C430.957 132.556 428.581 135.436 428.581 139.18C428.581 142.924 430.957 145.804 434.053 145.804C436.429 145.804 438.049 144.652 439.201 142.204L441.613 143.32C440.245 146.668 437.689 148.36 434.053 148.36ZM452.297 148.36C447.365 148.36 443.837 144.544 443.837 139.18C443.837 133.816 447.365 130 452.297 130C457.229 130 460.757 133.816 460.757 139.18C460.757 144.544 457.229 148.36 452.297 148.36ZM452.297 145.804C455.645 145.804 458.021 143.068 458.021 139.18C458.021 135.292 455.645 132.556 452.297 132.556C448.949 132.556 446.573 135.292 446.573 139.18C446.573 143.068 448.949 145.804 452.297 145.804ZM466.828 148H464.092V121.54H466.828V148ZM473.817 148H471.081V121.54H473.817V148ZM485.602 148.36C480.706 148.36 477.142 144.508 477.142 139.18C477.142 133.816 480.562 130 485.422 130C490.246 130 493.702 133.78 493.702 139.072C493.702 139.54 493.666 139.936 493.63 140.296H479.914C480.382 143.608 482.65 145.804 485.602 145.804C487.87 145.804 489.526 144.868 491.038 142.672L493.198 144.076C491.578 146.884 488.95 148.36 485.602 148.36ZM479.95 137.848H490.894C490.606 134.68 488.41 132.556 485.422 132.556C482.542 132.556 480.382 134.68 479.95 137.848ZM504.854 148.36C500.174 148.36 496.646 144.4 496.646 139.18C496.646 133.96 500.174 130 504.854 130C508.49 130 511.046 131.692 512.414 135.04L510.002 136.156C508.85 133.708 507.23 132.556 504.854 132.556C501.758 132.556 499.382 135.436 499.382 139.18C499.382 142.924 501.758 145.804 504.854 145.804C507.23 145.804 508.85 144.652 510.002 142.204L512.414 143.32C511.046 146.668 508.49 148.36 504.854 148.36ZM522.848 148.36C518.78 148.36 516.944 146.272 516.944 141.628V132.916H513.884V130.36H516.944V124.672H519.68V130.36H525.224V132.916H519.68V141.628C519.68 144.472 520.76 145.804 523.064 145.804C523.784 145.804 524.576 145.66 525.332 145.408L525.692 147.928C524.792 148.216 523.748 148.36 522.848 148.36ZM534.83 148.36C531.77 148.36 528.926 147.316 527.162 145.444L528.602 143.464C530.15 145.048 532.526 145.912 534.758 145.912C537.098 145.912 538.79 144.796 538.79 143.14C538.79 141.088 536.126 140.584 534.326 140.26C531.518 139.756 527.954 138.748 527.954 135.076C527.954 132.016 530.474 130 533.966 130C536.666 130 538.79 130.72 540.986 132.376L539.546 134.392C537.782 133.132 535.874 132.448 533.966 132.448C531.95 132.448 530.582 133.42 530.582 134.896C530.582 136.984 533.354 137.488 534.686 137.704C537.818 138.244 541.418 139.324 541.418 143.032C541.418 146.272 538.682 148.36 534.83 148.36Z" fill="white"/>
<mask id="path-21-outside-5_5508_11751" maskUnits="userSpaceOnUse" x="559" y="107" width="137" height="61" fill="black">
<rect fill="white" x="559" y="107" width="137" height="61"/>
<path d="M559 107H696V166H559V107Z"/>
</mask>
<path d="M696 164H559V168H696V164Z" fill="white" fill-opacity="0.25" mask="url(#path-21-outside-5_5508_11751)"/>
<path d="M578.656 140.584C578.656 144.472 575.56 147.172 571.024 147.568V151.672H568.756V147.568C565.552 147.316 562.456 145.984 560.152 143.644L561.88 141.7C564.256 143.968 567.172 144.904 569.944 144.904C573.472 144.904 575.848 143.176 575.848 140.62C575.848 137.56 572.176 136.696 569.548 136.156C566.956 135.616 561.232 134.392 561.232 129.1C561.232 125.104 564.544 122.728 568.756 122.512V118.588H571.024V122.62C573.796 123.052 576.316 124.384 578.332 126.076L576.748 128.164C574.264 126.364 571.672 125.176 569.116 125.176C566.38 125.176 564.04 126.544 564.04 129.136C564.04 132.016 566.884 132.844 569.8 133.42C572.68 133.996 578.656 135.148 578.656 140.584ZM580.595 125.932L586.499 122.26H589.127V148H586.211V125.356L581.135 128.596L580.595 125.932ZM626.87 122.26V148H623.918V127.192L615.53 148H613.37L604.982 127.192V148H602.03V122.26H605.918L614.45 143.572L622.982 122.26H626.87ZM634.148 126.328H631.124V122.764H634.148V126.328ZM634.004 148H631.268V130.36H634.004V148ZM640.957 148H638.221V121.54H640.957V148ZM647.945 148H645.209V121.54H647.945V148ZM655.043 126.328H652.019V122.764H655.043V126.328ZM654.899 148H652.163V130.36H654.899V148ZM666.719 148.36C661.787 148.36 658.259 144.544 658.259 139.18C658.259 133.816 661.787 130 666.719 130C671.651 130 675.179 133.816 675.179 139.18C675.179 144.544 671.651 148.36 666.719 148.36ZM666.719 145.804C670.067 145.804 672.443 143.068 672.443 139.18C672.443 135.292 670.067 132.556 666.719 132.556C663.371 132.556 660.995 135.292 660.995 139.18C660.995 143.068 663.371 145.804 666.719 145.804ZM681.25 148H678.514V130.36H680.998L681.07 133.816H681.106C682.294 131.368 684.562 130 687.298 130C691.114 130 693.526 132.664 693.526 136.876V148H690.79V137.02C690.79 134.104 689.386 132.556 686.794 132.556C683.986 132.556 682.042 134.356 681.43 137.452C681.286 138.172 681.25 138.892 681.25 140.908V148Z" fill="white"/>
<path d="M713.584 148V144.364H716.86V149.224C716.86 151.42 715.996 152.644 713.584 153.076V151.528C714.916 151.168 715.06 150.268 715.06 149.188V148H713.584Z" fill="white"/>
<path d="M750.912 133.384V130.36H753.648V148H751.128L750.984 144.832C749.58 147.028 747.348 148.36 744.648 148.36C740.076 148.36 736.728 144.508 736.728 139.18C736.728 133.852 740.076 129.964 744.648 129.964C747.276 129.964 749.508 131.26 750.912 133.384ZM745.188 145.804C748.5 145.804 750.912 143.032 750.912 139.18C750.912 135.328 748.5 132.556 745.188 132.556C741.876 132.556 739.464 135.328 739.464 139.18C739.464 143.032 741.876 145.804 745.188 145.804ZM760.598 148H757.862V130.36H760.346L760.418 133.816H760.454C761.642 131.368 763.91 130 766.646 130C770.462 130 772.874 132.664 772.874 136.876V148H770.138V137.02C770.138 134.104 768.734 132.556 766.142 132.556C763.334 132.556 761.39 134.356 760.778 137.452C760.634 138.172 760.598 138.892 760.598 140.908V148ZM790.377 133.384V121.54H793.113V148H790.593L790.449 144.868C789.045 147.028 786.813 148.36 784.113 148.36C779.505 148.36 776.193 144.544 776.193 139.18C776.193 133.816 779.505 130 784.113 130C786.741 130 788.973 131.296 790.377 133.384ZM784.653 145.804C788.001 145.804 790.377 143.068 790.377 139.18C790.377 135.292 788.001 132.556 784.653 132.556C781.305 132.556 778.929 135.292 778.929 139.18C778.929 143.068 781.305 145.804 784.653 145.804ZM814.651 130C819.259 130 822.571 133.816 822.571 139.18C822.571 144.544 819.259 148.36 814.651 148.36C812.023 148.36 809.791 147.064 808.387 144.976V155.344H805.651V130.36H808.171L808.315 133.492C809.719 131.332 811.951 130 814.651 130ZM814.111 145.804C817.459 145.804 819.835 143.068 819.835 139.18C819.835 135.292 817.459 132.556 814.111 132.556C810.763 132.556 808.387 135.292 808.387 139.18C808.387 143.068 810.763 145.804 814.111 145.804ZM828.629 148H825.893V130.36H828.377L828.449 133.924H828.485C829.565 131.368 831.581 129.928 834.209 129.928C834.533 129.928 834.821 129.964 835.145 130.036L834.965 132.592C834.569 132.52 834.245 132.484 833.813 132.484C831.293 132.484 829.457 134.464 828.809 137.956C828.665 138.64 828.629 139.612 828.629 141.34V148ZM844.668 148.36C839.736 148.36 836.208 144.544 836.208 139.18C836.208 133.816 839.736 130 844.668 130C849.6 130 853.128 133.816 853.128 139.18C853.128 144.544 849.6 148.36 844.668 148.36ZM844.668 145.804C848.016 145.804 850.392 143.068 850.392 139.18C850.392 135.292 848.016 132.556 844.668 132.556C841.32 132.556 838.944 135.292 838.944 139.18C838.944 143.068 841.32 145.804 844.668 145.804ZM864.307 148.36C859.627 148.36 856.099 144.4 856.099 139.18C856.099 133.96 859.627 130 864.307 130C867.943 130 870.499 131.692 871.867 135.04L869.455 136.156C868.303 133.708 866.683 132.556 864.307 132.556C861.211 132.556 858.835 135.436 858.835 139.18C858.835 142.924 861.211 145.804 864.307 145.804C866.683 145.804 868.303 144.652 869.455 142.204L871.867 143.32C870.499 146.668 867.943 148.36 864.307 148.36ZM882.551 148.36C877.655 148.36 874.091 144.508 874.091 139.18C874.091 133.816 877.511 130 882.371 130C887.195 130 890.651 133.78 890.651 139.072C890.651 139.54 890.615 139.936 890.579 140.296H876.863C877.331 143.608 879.599 145.804 882.551 145.804C884.819 145.804 886.475 144.868 887.987 142.672L890.147 144.076C888.527 146.884 885.899 148.36 882.551 148.36ZM876.899 137.848H887.843C887.555 134.68 885.359 132.556 882.371 132.556C879.491 132.556 877.331 134.68 876.899 137.848ZM900.435 148.36C897.375 148.36 894.531 147.316 892.767 145.444L894.207 143.464C895.755 145.048 898.131 145.912 900.363 145.912C902.703 145.912 904.395 144.796 904.395 143.14C904.395 141.088 901.731 140.584 899.931 140.26C897.123 139.756 893.559 138.748 893.559 135.076C893.559 132.016 896.079 130 899.571 130C902.271 130 904.395 130.72 906.591 132.376L905.151 134.392C903.387 133.132 901.479 132.448 899.571 132.448C897.555 132.448 896.187 133.42 896.187 134.896C896.187 136.984 898.959 137.488 900.291 137.704C903.423 138.244 907.023 139.324 907.023 143.032C907.023 146.272 904.287 148.36 900.435 148.36ZM916.81 148.36C913.75 148.36 910.906 147.316 909.142 145.444L910.582 143.464C912.13 145.048 914.506 145.912 916.738 145.912C919.078 145.912 920.77 144.796 920.77 143.14C920.77 141.088 918.106 140.584 916.306 140.26C913.498 139.756 909.934 138.748 909.934 135.076C909.934 132.016 912.454 130 915.946 130C918.646 130 920.77 130.72 922.966 132.376L921.526 134.392C919.762 133.132 917.854 132.448 915.946 132.448C913.93 132.448 912.562 133.42 912.562 134.896C912.562 136.984 915.334 137.488 916.666 137.704C919.798 138.244 923.398 139.324 923.398 143.032C923.398 146.272 920.662 148.36 916.81 148.36ZM934.348 148.36C929.452 148.36 925.888 144.508 925.888 139.18C925.888 133.816 929.308 130 934.168 130C938.992 130 942.448 133.78 942.448 139.072C942.448 139.54 942.412 139.936 942.376 140.296H928.66C929.128 143.608 931.396 145.804 934.348 145.804C936.616 145.804 938.272 144.868 939.784 142.672L941.944 144.076C940.324 146.884 937.696 148.36 934.348 148.36ZM928.696 137.848H939.64C939.352 134.68 937.156 132.556 934.168 132.556C931.288 132.556 929.128 134.68 928.696 137.848ZM952.232 148.36C949.172 148.36 946.328 147.316 944.564 145.444L946.004 143.464C947.552 145.048 949.928 145.912 952.16 145.912C954.5 145.912 956.192 144.796 956.192 143.14C956.192 141.088 953.528 140.584 951.728 140.26C948.92 139.756 945.356 138.748 945.356 135.076C945.356 132.016 947.876 130 951.368 130C954.068 130 956.192 130.72 958.388 132.376L956.948 134.392C955.184 133.132 953.276 132.448 951.368 132.448C949.352 132.448 947.984 133.42 947.984 134.896C947.984 136.984 950.756 137.488 952.088 137.704C955.22 138.244 958.82 139.324 958.82 143.032C958.82 146.272 956.084 148.36 952.232 148.36Z" fill="white"/>
<mask id="path-26-outside-6_5508_11751" maskUnits="userSpaceOnUse" x="0" y="182" width="287" height="61" fill="black">
<rect fill="white" y="182" width="287" height="61"/>
<path d="M0 182H287V241H0V182Z"/>
</mask>
<path d="M287 239H0V243H287V239Z" fill="white" fill-opacity="0.25" mask="url(#path-26-outside-6_5508_11751)"/>
<path d="M0.72 200.932L6.624 197.26H9.252V223H6.336V200.356L1.26 203.596L0.72 200.932ZM12.791 223V219.364H16.067V224.224C16.067 226.42 15.203 227.644 12.791 228.076V226.528C14.123 226.168 14.267 225.268 14.267 224.188V223H12.791ZM28.8215 223.36C22.7015 223.36 18.4895 217.996 18.4895 210.148C18.4895 202.3 22.7015 196.9 28.8215 196.9C34.9775 196.9 39.1175 202.228 39.1175 210.148C39.1175 218.032 34.9415 223.36 28.8215 223.36ZM28.8215 220.552C33.2135 220.552 36.1655 216.376 36.1655 210.148C36.1655 203.848 33.2495 199.708 28.8215 199.708C24.3935 199.708 21.4415 203.848 21.4415 210.148C21.4415 216.376 24.3935 220.552 28.8215 220.552ZM52.8957 223.36C46.7757 223.36 42.5637 217.996 42.5637 210.148C42.5637 202.3 46.7757 196.9 52.8957 196.9C59.0517 196.9 63.1917 202.228 63.1917 210.148C63.1917 218.032 59.0157 223.36 52.8957 223.36ZM52.8957 220.552C57.2877 220.552 60.2397 216.376 60.2397 210.148C60.2397 203.848 57.3237 199.708 52.8957 199.708C48.4677 199.708 45.5157 203.848 45.5157 210.148C45.5157 216.376 48.4677 220.552 52.8957 220.552ZM76.9699 223.36C70.8499 223.36 66.6379 217.996 66.6379 210.148C66.6379 202.3 70.8499 196.9 76.9699 196.9C83.1259 196.9 87.2659 202.228 87.2659 210.148C87.2659 218.032 83.0899 223.36 76.9699 223.36ZM76.9699 220.552C81.3619 220.552 84.3139 216.376 84.3139 210.148C84.3139 203.848 81.3979 199.708 76.9699 199.708C72.5419 199.708 69.5899 203.848 69.5899 210.148C69.5899 216.376 72.5419 220.552 76.9699 220.552ZM120.826 223H117.73L115.174 216.196H103.042L100.45 223H97.3897L107.218 197.26H110.962L120.826 223ZM109.126 200.104L104.086 213.424H114.13L109.126 200.104ZM136.199 208.528L136.343 205.36H138.863V221.02C138.863 226.996 135.695 230.668 130.511 230.668C127.307 230.668 124.427 229.444 122.519 227.248L124.139 225.304C125.939 227.212 127.955 228.112 130.403 228.112C134.039 228.112 136.127 225.556 136.127 221.056V219.94C134.723 222.064 132.491 223.36 129.863 223.36C125.255 223.36 121.943 219.472 121.943 214.144C121.943 208.852 125.291 205 129.863 205C132.527 205 134.795 206.332 136.199 208.528ZM130.403 220.804C133.715 220.804 136.127 218.032 136.127 214.144C136.127 210.328 133.715 207.556 130.403 207.556C127.091 207.556 124.679 210.328 124.679 214.144C124.679 218.032 127.091 220.804 130.403 220.804ZM145.777 223H143.041V205.36H145.525L145.597 208.924H145.633C146.713 206.368 148.729 204.928 151.357 204.928C151.681 204.928 151.969 204.964 152.293 205.036L152.113 207.592C151.717 207.52 151.393 207.484 150.961 207.484C148.441 207.484 146.605 209.464 145.957 212.956C145.813 213.64 145.777 214.612 145.777 216.34V223ZM161.817 223.36C156.921 223.36 153.357 219.508 153.357 214.18C153.357 208.816 156.777 205 161.637 205C166.461 205 169.917 208.78 169.917 214.072C169.917 214.54 169.881 214.936 169.845 215.296H156.129C156.597 218.608 158.865 220.804 161.817 220.804C164.085 220.804 165.741 219.868 167.253 217.672L169.413 219.076C167.793 221.884 165.165 223.36 161.817 223.36ZM156.165 212.848H167.109C166.821 209.68 164.625 207.556 161.637 207.556C158.757 207.556 156.597 209.68 156.165 212.848ZM181.321 223.36C176.425 223.36 172.861 219.508 172.861 214.18C172.861 208.816 176.281 205 181.141 205C185.965 205 189.421 208.78 189.421 214.072C189.421 214.54 189.385 214.936 189.349 215.296H175.633C176.101 218.608 178.369 220.804 181.321 220.804C183.589 220.804 185.245 219.868 186.757 217.672L188.917 219.076C187.297 221.884 184.669 223.36 181.321 223.36ZM175.669 212.848H186.613C186.325 209.68 184.129 207.556 181.141 207.556C178.261 207.556 176.101 209.68 175.669 212.848ZM211.952 205C215.516 205 217.64 207.628 217.64 212.056V223H214.904V212.02C214.904 209.14 213.608 207.556 211.304 207.556C208.856 207.556 207.164 209.392 206.696 212.488C206.588 213.244 206.552 214.144 206.552 215.944V223H203.852V212.02C203.852 209.176 202.556 207.556 200.288 207.556C197.732 207.556 196.112 209.356 195.644 212.488C195.536 213.244 195.5 214.144 195.5 215.944V223H192.764V205.36H195.248L195.32 208.24H195.392C196.4 206.224 198.452 205 200.9 205C203.456 205 205.256 206.368 206.084 208.78C207.128 206.404 209.324 205 211.952 205ZM229.399 223.36C224.503 223.36 220.939 219.508 220.939 214.18C220.939 208.816 224.359 205 229.219 205C234.043 205 237.499 208.78 237.499 214.072C237.499 214.54 237.463 214.936 237.427 215.296H223.711C224.179 218.608 226.447 220.804 229.399 220.804C231.667 220.804 233.323 219.868 234.835 217.672L236.995 219.076C235.375 221.884 232.747 223.36 229.399 223.36ZM223.747 212.848H234.691C234.403 209.68 232.207 207.556 229.219 207.556C226.339 207.556 224.179 209.68 223.747 212.848ZM243.578 223H240.842V205.36H243.326L243.398 208.816H243.434C244.622 206.368 246.89 205 249.626 205C253.442 205 255.854 207.664 255.854 211.876V223H253.118V212.02C253.118 209.104 251.714 207.556 249.122 207.556C246.314 207.556 244.37 209.356 243.758 212.452C243.614 213.172 243.578 213.892 243.578 215.908V223ZM266.75 223.36C262.682 223.36 260.846 221.272 260.846 216.628V207.916H257.786V205.36H260.846V199.672H263.582V205.36H269.126V207.916H263.582V216.628C263.582 219.472 264.662 220.804 266.966 220.804C267.686 220.804 268.478 220.66 269.234 220.408L269.594 222.928C268.694 223.216 267.65 223.36 266.75 223.36ZM278.732 223.36C275.672 223.36 272.828 222.316 271.064 220.444L272.504 218.464C274.052 220.048 276.428 220.912 278.66 220.912C281 220.912 282.692 219.796 282.692 218.14C282.692 216.088 280.028 215.584 278.228 215.26C275.42 214.756 271.856 213.748 271.856 210.076C271.856 207.016 274.376 205 277.868 205C280.568 205 282.692 205.72 284.888 207.376L283.448 209.392C281.684 208.132 279.776 207.448 277.868 207.448C275.852 207.448 274.484 208.42 274.484 209.896C274.484 211.984 277.256 212.488 278.588 212.704C281.72 213.244 285.32 214.324 285.32 218.032C285.32 221.272 282.584 223.36 278.732 223.36Z" fill="white"/>
<path d="M304.584 223V219.364H307.86V224.224C307.86 226.42 306.996 227.644 304.584 228.076V226.528C305.916 226.168 306.06 225.268 306.06 224.188V223H304.584Z" fill="white"/>
<path d="M338.364 205.36H341.1V223H338.616L338.544 219.544H338.508C337.32 221.992 335.052 223.36 332.316 223.36C328.5 223.36 326.088 220.696 326.088 216.484V205.36H328.824V216.34C328.824 219.256 330.228 220.804 332.82 220.804C335.628 220.804 337.572 219.004 338.184 215.908C338.328 215.188 338.364 214.468 338.364 212.452V205.36ZM351.439 223.36C348.379 223.36 345.535 222.316 343.771 220.444L345.211 218.464C346.759 220.048 349.135 220.912 351.367 220.912C353.707 220.912 355.399 219.796 355.399 218.14C355.399 216.088 352.735 215.584 350.935 215.26C348.127 214.756 344.563 213.748 344.563 210.076C344.563 207.016 347.083 205 350.575 205C353.275 205 355.399 205.72 357.595 207.376L356.155 209.392C354.391 208.132 352.483 207.448 350.575 207.448C348.559 207.448 347.191 208.42 347.191 209.896C347.191 211.984 349.963 212.488 351.295 212.704C354.427 213.244 358.027 214.324 358.027 218.032C358.027 221.272 355.291 223.36 351.439 223.36ZM363.937 201.328H360.913V197.764H363.937V201.328ZM363.793 223H361.057V205.36H363.793V223ZM370.746 223H368.01V205.36H370.494L370.566 208.816H370.602C371.79 206.368 374.058 205 376.794 205C380.61 205 383.022 207.664 383.022 211.876V223H380.286V212.02C380.286 209.104 378.882 207.556 376.29 207.556C373.482 207.556 371.538 209.356 370.926 212.452C370.782 213.172 370.746 213.892 370.746 215.908V223ZM400.597 208.528L400.741 205.36H403.261V221.02C403.261 226.996 400.093 230.668 394.909 230.668C391.705 230.668 388.825 229.444 386.917 227.248L388.537 225.304C390.337 227.212 392.353 228.112 394.801 228.112C398.437 228.112 400.525 225.556 400.525 221.056V219.94C399.121 222.064 396.889 223.36 394.261 223.36C389.653 223.36 386.341 219.472 386.341 214.144C386.341 208.852 389.689 205 394.261 205C396.925 205 399.193 206.332 400.597 208.528ZM394.801 220.804C398.113 220.804 400.525 218.032 400.525 214.144C400.525 210.328 398.113 207.556 394.801 207.556C391.489 207.556 389.077 210.328 389.077 214.144C389.077 218.032 391.489 220.804 394.801 220.804ZM428.916 208.384V205.36H431.652V223H429.132L428.988 219.832C427.584 222.028 425.352 223.36 422.652 223.36C418.08 223.36 414.732 219.508 414.732 214.18C414.732 208.852 418.08 204.964 422.652 204.964C425.28 204.964 427.512 206.26 428.916 208.384ZM423.192 220.804C426.504 220.804 428.916 218.032 428.916 214.18C428.916 210.328 426.504 207.556 423.192 207.556C419.88 207.556 417.468 210.328 417.468 214.18C417.468 218.032 419.88 220.804 423.192 220.804Z" fill="white"/>
<mask id="path-31-outside-7_5508_11751" maskUnits="userSpaceOnUse" x="450" y="182" width="374" height="61" fill="black">
<rect fill="white" x="450" y="182" width="374" height="61"/>
<path d="M450 182H824V241H450V182Z"/>
</mask>
<path d="M824 239H450V243H824V239Z" fill="white" fill-opacity="0.25" mask="url(#path-31-outside-7_5508_11751)"/>
<path d="M455.4 197.26V220.192H468.9V223H452.448V197.26H455.4ZM478.813 223.36C473.881 223.36 470.353 219.544 470.353 214.18C470.353 208.816 473.881 205 478.813 205C483.745 205 487.273 208.816 487.273 214.18C487.273 219.544 483.745 223.36 478.813 223.36ZM478.813 220.804C482.161 220.804 484.537 218.068 484.537 214.18C484.537 210.292 482.161 207.556 478.813 207.556C475.465 207.556 473.089 210.292 473.089 214.18C473.089 218.068 475.465 220.804 478.813 220.804ZM506.924 219.58L510.632 205.36H513.476L508.616 223H505.628L501.092 208.78L496.52 223H493.532L488.708 205.36H491.516L495.224 219.58L499.76 205.36H502.388L506.924 219.58ZM535.688 223.36C528.776 223.36 523.736 217.78 523.736 210.148C523.736 202.48 528.776 196.9 535.688 196.9C540.044 196.9 543.716 199.096 545.84 202.984L543.284 204.316C541.628 201.364 538.892 199.708 535.688 199.708C530.432 199.708 526.688 204.064 526.688 210.148C526.688 216.196 530.432 220.552 535.688 220.552C538.892 220.552 541.628 218.896 543.284 215.944L545.84 217.312C543.716 221.164 540.008 223.36 535.688 223.36ZM556.477 223.36C551.545 223.36 548.017 219.544 548.017 214.18C548.017 208.816 551.545 205 556.477 205C561.409 205 564.937 208.816 564.937 214.18C564.937 219.544 561.409 223.36 556.477 223.36ZM556.477 220.804C559.825 220.804 562.201 218.068 562.201 214.18C562.201 210.292 559.825 207.556 556.477 207.556C553.129 207.556 550.753 210.292 550.753 214.18C550.753 218.068 553.129 220.804 556.477 220.804ZM587.46 205C591.024 205 593.148 207.628 593.148 212.056V223H590.412V212.02C590.412 209.14 589.116 207.556 586.812 207.556C584.364 207.556 582.672 209.392 582.204 212.488C582.096 213.244 582.06 214.144 582.06 215.944V223H579.36V212.02C579.36 209.176 578.064 207.556 575.796 207.556C573.24 207.556 571.62 209.356 571.152 212.488C571.044 213.244 571.008 214.144 571.008 215.944V223H568.272V205.36H570.756L570.828 208.24H570.9C571.908 206.224 573.96 205 576.408 205C578.964 205 580.764 206.368 581.592 208.78C582.636 206.404 584.832 205 587.46 205ZM606.198 205C610.806 205 614.118 208.816 614.118 214.18C614.118 219.544 610.806 223.36 606.198 223.36C603.57 223.36 601.338 222.064 599.934 219.976V230.344H597.198V205.36H599.718L599.862 208.492C601.266 206.332 603.498 205 606.198 205ZM605.658 220.804C609.006 220.804 611.382 218.068 611.382 214.18C611.382 210.292 609.006 207.556 605.658 207.556C602.31 207.556 599.934 210.292 599.934 214.18C599.934 218.068 602.31 220.804 605.658 220.804ZM620.176 223H617.44V196.54H620.176V223ZM631.961 223.36C627.065 223.36 623.501 219.508 623.501 214.18C623.501 208.816 626.921 205 631.781 205C636.605 205 640.061 208.78 640.061 214.072C640.061 214.54 640.025 214.936 639.989 215.296H626.273C626.741 218.608 629.009 220.804 631.961 220.804C634.229 220.804 635.885 219.868 637.397 217.672L639.557 219.076C637.937 221.884 635.309 223.36 631.961 223.36ZM626.309 212.848H637.253C636.965 209.68 634.769 207.556 631.781 207.556C628.901 207.556 626.741 209.68 626.309 212.848ZM650.592 214.036L657.252 223H654.12L648.972 215.728L643.788 223H640.656L647.316 214.036L640.836 205.36H643.968L648.972 212.308L653.94 205.36H657.072L650.592 214.036ZM662.097 201.328H659.073V197.764H662.097V201.328ZM661.953 223H659.217V205.36H661.953V223ZM673.735 223.36C669.667 223.36 667.831 221.272 667.831 216.628V207.916H664.771V205.36H667.831V199.672H670.567V205.36H676.111V207.916H670.567V216.628C670.567 219.472 671.647 220.804 673.951 220.804C674.671 220.804 675.463 220.66 676.219 220.408L676.579 222.928C675.679 223.216 674.635 223.36 673.735 223.36ZM681 230.344C679.74 230.344 678.912 230.128 678.12 229.804L678.732 227.536C679.236 227.716 679.848 227.86 680.676 227.86C682.224 227.86 683.412 226.924 684.312 224.692L685.14 222.64L677.796 205.36H680.64L686.364 219.328L691.44 205.36H694.284L686.688 225.448C685.248 229.264 682.98 230.344 681 230.344ZM711.136 197.26C717.328 197.26 721.072 200.392 721.072 205.504C721.072 210.688 717.328 213.784 711.136 213.784H707.248V223H704.296V197.26H711.136ZM707.248 210.976H711.136C715.708 210.976 718.12 209.068 718.12 205.504C718.12 201.976 715.672 200.068 711.136 200.068H707.248V210.976ZM727.234 223H724.498V205.36H726.982L727.054 208.924H727.09C728.17 206.368 730.186 204.928 732.814 204.928C733.138 204.928 733.426 204.964 733.75 205.036L733.57 207.592C733.174 207.52 732.85 207.484 732.418 207.484C729.898 207.484 728.062 209.464 727.414 212.956C727.27 213.64 727.234 214.612 727.234 216.34V223ZM743.274 223.36C738.342 223.36 734.814 219.544 734.814 214.18C734.814 208.816 738.342 205 743.274 205C748.206 205 751.734 208.816 751.734 214.18C751.734 219.544 748.206 223.36 743.274 223.36ZM743.274 220.804C746.622 220.804 748.998 218.068 748.998 214.18C748.998 210.292 746.622 207.556 743.274 207.556C739.926 207.556 737.55 210.292 737.55 214.18C737.55 218.068 739.926 220.804 743.274 220.804ZM762.913 223.36C758.233 223.36 754.705 219.4 754.705 214.18C754.705 208.96 758.233 205 762.913 205C766.549 205 769.105 206.692 770.473 210.04L768.061 211.156C766.909 208.708 765.289 207.556 762.913 207.556C759.817 207.556 757.441 210.436 757.441 214.18C757.441 217.924 759.817 220.804 762.913 220.804C765.289 220.804 766.909 219.652 768.061 217.204L770.473 218.32C769.105 221.668 766.549 223.36 762.913 223.36ZM781.157 223.36C776.261 223.36 772.697 219.508 772.697 214.18C772.697 208.816 776.117 205 780.977 205C785.801 205 789.257 208.78 789.257 214.072C789.257 214.54 789.221 214.936 789.185 215.296H775.469C775.937 218.608 778.205 220.804 781.157 220.804C783.425 220.804 785.081 219.868 786.593 217.672L788.753 219.076C787.133 221.884 784.505 223.36 781.157 223.36ZM775.505 212.848H786.449C786.161 209.68 783.965 207.556 780.977 207.556C778.097 207.556 775.937 209.68 775.505 212.848ZM799.041 223.36C795.981 223.36 793.137 222.316 791.373 220.444L792.813 218.464C794.361 220.048 796.737 220.912 798.969 220.912C801.309 220.912 803.001 219.796 803.001 218.14C803.001 216.088 800.337 215.584 798.537 215.26C795.729 214.756 792.165 213.748 792.165 210.076C792.165 207.016 794.685 205 798.177 205C800.877 205 803.001 205.72 805.197 207.376L803.757 209.392C801.993 208.132 800.085 207.448 798.177 207.448C796.161 207.448 794.793 208.42 794.793 209.896C794.793 211.984 797.565 212.488 798.897 212.704C802.029 213.244 805.629 214.324 805.629 218.032C805.629 221.272 802.893 223.36 799.041 223.36ZM815.416 223.36C812.356 223.36 809.512 222.316 807.748 220.444L809.188 218.464C810.736 220.048 813.112 220.912 815.344 220.912C817.684 220.912 819.376 219.796 819.376 218.14C819.376 216.088 816.712 215.584 814.912 215.26C812.104 214.756 808.54 213.748 808.54 210.076C808.54 207.016 811.06 205 814.552 205C817.252 205 819.376 205.72 821.572 207.376L820.132 209.392C818.368 208.132 816.46 207.448 814.552 207.448C812.536 207.448 811.168 208.42 811.168 209.896C811.168 211.984 813.94 212.488 815.272 212.704C818.404 213.244 822.004 214.324 822.004 218.032C822.004 221.272 819.268 223.36 815.416 223.36Z" fill="white"/>
</g>
</svg>
